<?xml version="1.0" encoding="utf-8" standalone="no"?>
<!DOCTYPE svg PUBLIC "-//W3C//DTD SVG 1.1//EN"
  "http://www.w3.org/Graphics/SVG/1.1/DTD/svg11.dtd">
<svg xmlns:xlink="http://www.w3.org/1999/xlink" width="829.44pt" height="138.24pt" viewBox="0 0 829.44 138.24" xmlns="http://www.w3.org/2000/svg" version="1.1">
 <metadata>
  <rdf:RDF xmlns:dc="http://purl.org/dc/elements/1.1/" xmlns:cc="http://creativecommons.org/ns#" xmlns:rdf="http://www.w3.org/1999/02/22-rdf-syntax-ns#">
   <cc:Work>
    <dc:type rdf:resource="http://purl.org/dc/dcmitype/StillImage"/>
    <dc:date>2022-12-14T04:16:30.320091</dc:date>
    <dc:format>image/svg+xml</dc:format>
    <dc:creator>
     <cc:Agent>
      <dc:title>Matplotlib v3.6.2, https://matplotlib.org/</dc:title>
     </cc:Agent>
    </dc:creator>
   </cc:Work>
  </rdf:RDF>
 </metadata>
 <defs>
  <style type="text/css">*{stroke-linejoin: round; stroke-linecap: butt}</style>
 </defs>
 <g id="figure_1">
  <g id="patch_1">
   <path d="M 0 138.24 
L 829.44 138.24 
L 829.44 0 
L 0 0 
z
" style="fill: #ffffff"/>
  </g>
  <g id="axes_1">
   <g id="patch_2">
    <path d="M 103.68 123.0336 
L 395.869091 123.0336 
L 395.869091 16.5888 
L 103.68 16.5888 
z
" style="fill: #ffffff"/>
   </g>
   <g id="matplotlib.axis_1">
    <g id="xtick_1">
     <g id="line2d_1">
      <defs>
       <path id="m4edf5324bb" d="M 0 0 
L 0 3.5 
" style="stroke: #000000; stroke-width: 0.8"/>
      </defs>
      <g>
       <use xlink:href="#m4edf5324bb" x="116.961322" y="123.0336" style="stroke: #000000; stroke-width: 0.8"/>
      </g>
     </g>
     <g id="text_1">
      <!-- 500 -->
      <g transform="translate(111.235072 134.592663) scale(0.06 -0.06)">
       <defs>
        <path id="DejaVuSans-35" d="M 691 4666 
L 3169 4666 
L 3169 4134 
L 1269 4134 
L 1269 2991 
Q 1406 3038 1543 3061 
Q 1681 3084 1819 3084 
Q 2600 3084 3056 2656 
Q 3513 2228 3513 1497 
Q 3513 744 3044 326 
Q 2575 -91 1722 -91 
Q 1428 -91 1123 -41 
Q 819 9 494 109 
L 494 744 
Q 775 591 1075 516 
Q 1375 441 1709 441 
Q 2250 441 2565 725 
Q 2881 1009 2881 1497 
Q 2881 1984 2565 2268 
Q 2250 2553 1709 2553 
Q 1456 2553 1204 2497 
Q 953 2441 691 2322 
L 691 4666 
z
" transform="scale(0.015625)"/>
        <path id="DejaVuSans-30" d="M 2034 4250 
Q 1547 4250 1301 3770 
Q 1056 3291 1056 2328 
Q 1056 1369 1301 889 
Q 1547 409 2034 409 
Q 2525 409 2770 889 
Q 3016 1369 3016 2328 
Q 3016 3291 2770 3770 
Q 2525 4250 2034 4250 
z
M 2034 4750 
Q 2819 4750 3233 4129 
Q 3647 3509 3647 2328 
Q 3647 1150 3233 529 
Q 2819 -91 2034 -91 
Q 1250 -91 836 529 
Q 422 1150 422 2328 
Q 422 3509 836 4129 
Q 1250 4750 2034 4750 
z
" transform="scale(0.015625)"/>
       </defs>
       <use xlink:href="#DejaVuSans-35"/>
       <use xlink:href="#DejaVuSans-30" x="63.623047"/>
       <use xlink:href="#DejaVuSans-30" x="127.246094"/>
      </g>
     </g>
    </g>
    <g id="xtick_2">
     <g id="line2d_2">
      <g>
       <use xlink:href="#m4edf5324bb" x="140.362308" y="123.0336" style="stroke: #000000; stroke-width: 0.8"/>
      </g>
     </g>
     <g id="text_2">
      <!-- 1k -->
      <g transform="translate(136.71637 134.592663) scale(0.06 -0.06)">
       <defs>
        <path id="DejaVuSans-31" d="M 794 531 
L 1825 531 
L 1825 4091 
L 703 3866 
L 703 4441 
L 1819 4666 
L 2450 4666 
L 2450 531 
L 3481 531 
L 3481 0 
L 794 0 
L 794 531 
z
" transform="scale(0.015625)"/>
        <path id="DejaVuSans-6b" d="M 581 4863 
L 1159 4863 
L 1159 1991 
L 2875 3500 
L 3609 3500 
L 1753 1863 
L 3688 0 
L 2938 0 
L 1159 1709 
L 1159 0 
L 581 0 
L 581 4863 
z
" transform="scale(0.015625)"/>
       </defs>
       <use xlink:href="#DejaVuSans-31"/>
       <use xlink:href="#DejaVuSans-6b" x="63.623047"/>
      </g>
     </g>
    </g>
    <g id="xtick_3">
     <g id="line2d_3">
      <g>
       <use xlink:href="#m4edf5324bb" x="171.296728" y="123.0336" style="stroke: #000000; stroke-width: 0.8"/>
      </g>
     </g>
     <g id="text_3">
      <!-- 2.5k -->
      <g transform="translate(164.788603 134.592663) scale(0.06 -0.06)">
       <defs>
        <path id="DejaVuSans-32" d="M 1228 531 
L 3431 531 
L 3431 0 
L 469 0 
L 469 531 
Q 828 903 1448 1529 
Q 2069 2156 2228 2338 
Q 2531 2678 2651 2914 
Q 2772 3150 2772 3378 
Q 2772 3750 2511 3984 
Q 2250 4219 1831 4219 
Q 1534 4219 1204 4116 
Q 875 4013 500 3803 
L 500 4441 
Q 881 4594 1212 4672 
Q 1544 4750 1819 4750 
Q 2544 4750 2975 4387 
Q 3406 4025 3406 3419 
Q 3406 3131 3298 2873 
Q 3191 2616 2906 2266 
Q 2828 2175 2409 1742 
Q 1991 1309 1228 531 
z
" transform="scale(0.015625)"/>
        <path id="DejaVuSans-2e" d="M 684 794 
L 1344 794 
L 1344 0 
L 684 0 
L 684 794 
z
" transform="scale(0.015625)"/>
       </defs>
       <use xlink:href="#DejaVuSans-32"/>
       <use xlink:href="#DejaVuSans-2e" x="63.623047"/>
       <use xlink:href="#DejaVuSans-35" x="95.410156"/>
       <use xlink:href="#DejaVuSans-6b" x="159.033203"/>
      </g>
     </g>
    </g>
    <g id="xtick_4">
     <g id="line2d_4">
      <g>
       <use xlink:href="#m4edf5324bb" x="194.697714" y="123.0336" style="stroke: #000000; stroke-width: 0.8"/>
      </g>
     </g>
     <g id="text_4">
      <!-- 5k -->
      <g transform="translate(191.051776 134.592663) scale(0.06 -0.06)">
       <use xlink:href="#DejaVuSans-35"/>
       <use xlink:href="#DejaVuSans-6b" x="63.623047"/>
      </g>
     </g>
    </g>
    <g id="xtick_5">
     <g id="line2d_5">
      <g>
       <use xlink:href="#m4edf5324bb" x="218.098699" y="123.0336" style="stroke: #000000; stroke-width: 0.8"/>
      </g>
     </g>
     <g id="text_5">
      <!-- 10k -->
      <g transform="translate(212.544012 134.592663) scale(0.06 -0.06)">
       <use xlink:href="#DejaVuSans-31"/>
       <use xlink:href="#DejaVuSans-30" x="63.623047"/>
       <use xlink:href="#DejaVuSans-6b" x="127.246094"/>
      </g>
     </g>
    </g>
    <g id="xtick_6">
     <g id="line2d_6">
      <g>
       <use xlink:href="#m4edf5324bb" x="249.033119" y="123.0336" style="stroke: #000000; stroke-width: 0.8"/>
      </g>
     </g>
     <g id="text_6">
      <!-- 25k -->
      <g transform="translate(243.478432 134.592663) scale(0.06 -0.06)">
       <use xlink:href="#DejaVuSans-32"/>
       <use xlink:href="#DejaVuSans-35" x="63.623047"/>
       <use xlink:href="#DejaVuSans-6b" x="127.246094"/>
      </g>
     </g>
    </g>
    <g id="xtick_7">
     <g id="line2d_7">
      <g>
       <use xlink:href="#m4edf5324bb" x="272.434105" y="123.0336" style="stroke: #000000; stroke-width: 0.8"/>
      </g>
     </g>
     <g id="text_7">
      <!-- 50k -->
      <g transform="translate(266.879417 134.592663) scale(0.06 -0.06)">
       <use xlink:href="#DejaVuSans-35"/>
       <use xlink:href="#DejaVuSans-30" x="63.623047"/>
       <use xlink:href="#DejaVuSans-6b" x="127.246094"/>
      </g>
     </g>
    </g>
    <g id="xtick_8">
     <g id="line2d_8">
      <g>
       <use xlink:href="#m4edf5324bb" x="295.83509" y="123.0336" style="stroke: #000000; stroke-width: 0.8"/>
      </g>
     </g>
     <g id="text_8">
      <!-- 100k -->
      <g transform="translate(288.371653 134.592663) scale(0.06 -0.06)">
       <use xlink:href="#DejaVuSans-31"/>
       <use xlink:href="#DejaVuSans-30" x="63.623047"/>
       <use xlink:href="#DejaVuSans-30" x="127.246094"/>
       <use xlink:href="#DejaVuSans-6b" x="190.869141"/>
      </g>
     </g>
    </g>
    <g id="xtick_9">
     <g id="line2d_9">
      <g>
       <use xlink:href="#m4edf5324bb" x="326.769511" y="123.0336" style="stroke: #000000; stroke-width: 0.8"/>
      </g>
     </g>
     <g id="text_9">
      <!-- 250k -->
      <g transform="translate(319.306073 134.592663) scale(0.06 -0.06)">
       <use xlink:href="#DejaVuSans-32"/>
       <use xlink:href="#DejaVuSans-35" x="63.623047"/>
       <use xlink:href="#DejaVuSans-30" x="127.246094"/>
       <use xlink:href="#DejaVuSans-6b" x="190.869141"/>
      </g>
     </g>
    </g>
    <g id="xtick_10">
     <g id="line2d_10">
      <g>
       <use xlink:href="#m4edf5324bb" x="350.170496" y="123.0336" style="stroke: #000000; stroke-width: 0.8"/>
      </g>
     </g>
     <g id="text_10">
      <!-- 500k -->
      <g transform="translate(342.707059 134.592663) scale(0.06 -0.06)">
       <use xlink:href="#DejaVuSans-35"/>
       <use xlink:href="#DejaVuSans-30" x="63.623047"/>
       <use xlink:href="#DejaVuSans-30" x="127.246094"/>
       <use xlink:href="#DejaVuSans-6b" x="190.869141"/>
      </g>
     </g>
    </g>
    <g id="xtick_11">
     <g id="line2d_11">
      <g>
       <use xlink:href="#m4edf5324bb" x="373.571482" y="123.0336" style="stroke: #000000; stroke-width: 0.8"/>
      </g>
     </g>
     <g id="text_11">
      <!-- 1M -->
      <g transform="translate(369.074294 134.592663) scale(0.06 -0.06)">
       <defs>
        <path id="DejaVuSans-4d" d="M 628 4666 
L 1569 4666 
L 2759 1491 
L 3956 4666 
L 4897 4666 
L 4897 0 
L 4281 0 
L 4281 4097 
L 3078 897 
L 2444 897 
L 1241 4097 
L 1241 0 
L 628 0 
L 628 4666 
z
" transform="scale(0.015625)"/>
       </defs>
       <use xlink:href="#DejaVuSans-31"/>
       <use xlink:href="#DejaVuSans-4d" x="63.623047"/>
      </g>
     </g>
    </g>
    <g id="xtick_12">
     <g id="line2d_12">
      <g>
       <use xlink:href="#m4edf5324bb" x="382.587769" y="123.0336" style="stroke: #000000; stroke-width: 0.8"/>
      </g>
     </g>
     <g id="text_12">
      <!-- 1.3M -->
      <g transform="translate(375.228394 134.592663) scale(0.06 -0.06)">
       <defs>
        <path id="DejaVuSans-33" d="M 2597 2516 
Q 3050 2419 3304 2112 
Q 3559 1806 3559 1356 
Q 3559 666 3084 287 
Q 2609 -91 1734 -91 
Q 1441 -91 1130 -33 
Q 819 25 488 141 
L 488 750 
Q 750 597 1062 519 
Q 1375 441 1716 441 
Q 2309 441 2620 675 
Q 2931 909 2931 1356 
Q 2931 1769 2642 2001 
Q 2353 2234 1838 2234 
L 1294 2234 
L 1294 2753 
L 1863 2753 
Q 2328 2753 2575 2939 
Q 2822 3125 2822 3475 
Q 2822 3834 2567 4026 
Q 2313 4219 1838 4219 
Q 1578 4219 1281 4162 
Q 984 4106 628 3988 
L 628 4550 
Q 988 4650 1302 4700 
Q 1616 4750 1894 4750 
Q 2613 4750 3031 4423 
Q 3450 4097 3450 3541 
Q 3450 3153 3228 2886 
Q 3006 2619 2597 2516 
z
" transform="scale(0.015625)"/>
       </defs>
       <use xlink:href="#DejaVuSans-31"/>
       <use xlink:href="#DejaVuSans-2e" x="63.623047"/>
       <use xlink:href="#DejaVuSans-33" x="95.410156"/>
       <use xlink:href="#DejaVuSans-4d" x="159.033203"/>
      </g>
     </g>
    </g>
   </g>
   <g id="matplotlib.axis_2">
    <g id="ytick_1">
     <g id="line2d_13">
      <defs>
       <path id="m4aaf608474" d="M 0 0 
L -3.5 0 
" style="stroke: #000000; stroke-width: 0.8"/>
      </defs>
      <g>
       <use xlink:href="#m4aaf608474" x="103.68" y="105.637678" style="stroke: #000000; stroke-width: 0.8"/>
      </g>
     </g>
     <g id="text_13">
      <!-- 2 -->
      <g transform="translate(90.3175 109.436897) scale(0.1 -0.1)">
       <use xlink:href="#DejaVuSans-32"/>
      </g>
     </g>
    </g>
    <g id="ytick_2">
     <g id="line2d_14">
      <g>
       <use xlink:href="#m4aaf608474" x="103.68" y="76.611233" style="stroke: #000000; stroke-width: 0.8"/>
      </g>
     </g>
     <g id="text_14">
      <!-- 3 -->
      <g transform="translate(90.3175 80.410452) scale(0.1 -0.1)">
       <use xlink:href="#DejaVuSans-33"/>
      </g>
     </g>
    </g>
    <g id="ytick_3">
     <g id="line2d_15">
      <g>
       <use xlink:href="#m4aaf608474" x="103.68" y="47.584788" style="stroke: #000000; stroke-width: 0.8"/>
      </g>
     </g>
     <g id="text_15">
      <!-- 4 -->
      <g transform="translate(90.3175 51.384007) scale(0.1 -0.1)">
       <defs>
        <path id="DejaVuSans-34" d="M 2419 4116 
L 825 1625 
L 2419 1625 
L 2419 4116 
z
M 2253 4666 
L 3047 4666 
L 3047 1625 
L 3713 1625 
L 3713 1100 
L 3047 1100 
L 3047 0 
L 2419 0 
L 2419 1100 
L 313 1100 
L 313 1709 
L 2253 4666 
z
" transform="scale(0.015625)"/>
       </defs>
       <use xlink:href="#DejaVuSans-34"/>
      </g>
     </g>
    </g>
    <g id="ytick_4">
     <g id="line2d_16">
      <g>
       <use xlink:href="#m4aaf608474" x="103.68" y="18.558343" style="stroke: #000000; stroke-width: 0.8"/>
      </g>
     </g>
     <g id="text_16">
      <!-- 5 -->
      <g transform="translate(90.3175 22.357561) scale(0.1 -0.1)">
       <use xlink:href="#DejaVuSans-35"/>
      </g>
     </g>
    </g>
   </g>
   <g id="line2d_17">
    <path d="M 116.961322 103.563889 
L 140.362308 100.93281 
L 171.296728 93.758285 
L 194.697714 91.500234 
L 218.098699 85.16654 
L 249.033119 75.07563 
L 272.434105 66.877274 
L 295.83509 58.12855 
L 326.769511 45.869631 
L 350.170496 36.686591 
L 373.571482 26.276376 
L 382.587769 21.4272 
" clip-path="url(#pf571bcde70)" style="fill: none; stroke: #ff8133; stroke-width: 1.5; stroke-linecap: square"/>
    <defs>
     <path id="m347d4973ce" d="M 0 2.5 
C 0.663008 2.5 1.29895 2.236584 1.767767 1.767767 
C 2.236584 1.29895 2.5 0.663008 2.5 0 
C 2.5 -0.663008 2.236584 -1.29895 1.767767 -1.767767 
C 1.29895 -2.236584 0.663008 -2.5 0 -2.5 
C -0.663008 -2.5 -1.29895 -2.236584 -1.767767 -1.767767 
C -2.236584 -1.29895 -2.5 -0.663008 -2.5 0 
C -2.5 0.663008 -2.236584 1.29895 -1.767767 1.767767 
C -1.29895 2.236584 -0.663008 2.5 0 2.5 
z
" style="stroke: #ff8133"/>
    </defs>
    <g clip-path="url(#pf571bcde70)">
     <use xlink:href="#m347d4973ce" x="116.961322" y="103.563889" style="fill: #ff8133; stroke: #ff8133"/>
     <use xlink:href="#m347d4973ce" x="140.362308" y="100.93281" style="fill: #ff8133; stroke: #ff8133"/>
     <use xlink:href="#m347d4973ce" x="171.296728" y="93.758285" style="fill: #ff8133; stroke: #ff8133"/>
     <use xlink:href="#m347d4973ce" x="194.697714" y="91.500234" style="fill: #ff8133; stroke: #ff8133"/>
     <use xlink:href="#m347d4973ce" x="218.098699" y="85.16654" style="fill: #ff8133; stroke: #ff8133"/>
     <use xlink:href="#m347d4973ce" x="249.033119" y="75.07563" style="fill: #ff8133; stroke: #ff8133"/>
     <use xlink:href="#m347d4973ce" x="272.434105" y="66.877274" style="fill: #ff8133; stroke: #ff8133"/>
     <use xlink:href="#m347d4973ce" x="295.83509" y="58.12855" style="fill: #ff8133; stroke: #ff8133"/>
     <use xlink:href="#m347d4973ce" x="326.769511" y="45.869631" style="fill: #ff8133; stroke: #ff8133"/>
     <use xlink:href="#m347d4973ce" x="350.170496" y="36.686591" style="fill: #ff8133; stroke: #ff8133"/>
     <use xlink:href="#m347d4973ce" x="373.571482" y="26.276376" style="fill: #ff8133; stroke: #ff8133"/>
     <use xlink:href="#m347d4973ce" x="382.587769" y="21.4272" style="fill: #ff8133; stroke: #ff8133"/>
    </g>
   </g>
   <g id="line2d_18">
    <path d="M 116.961322 104.23549 
L 140.362308 105.595852 
L 171.296728 105.44976 
L 194.697714 103.571976 
L 218.098699 93.24568 
L 249.033119 85.64352 
L 272.434105 82.317798 
L 295.83509 75.296677 
L 326.769511 63.625302 
L 350.170496 55.24441 
L 373.571482 46.00968 
L 382.587769 41.683059 
" clip-path="url(#pf571bcde70)" style="fill: none; stroke: #88dae7; stroke-width: 1.5; stroke-linecap: square"/>
    <defs>
     <path id="m9d4944dd0e" d="M 0 2.5 
C 0.663008 2.5 1.29895 2.236584 1.767767 1.767767 
C 2.236584 1.29895 2.5 0.663008 2.5 0 
C 2.5 -0.663008 2.236584 -1.29895 1.767767 -1.767767 
C 1.29895 -2.236584 0.663008 -2.5 0 -2.5 
C -0.663008 -2.5 -1.29895 -2.236584 -1.767767 -1.767767 
C -2.236584 -1.29895 -2.5 -0.663008 -2.5 0 
C -2.5 0.663008 -2.236584 1.29895 -1.767767 1.767767 
C -1.29895 2.236584 -0.663008 2.5 0 2.5 
z
" style="stroke: #88dae7"/>
    </defs>
    <g clip-path="url(#pf571bcde70)">
     <use xlink:href="#m9d4944dd0e" x="116.961322" y="104.23549" style="fill: #88dae7; stroke: #88dae7"/>
     <use xlink:href="#m9d4944dd0e" x="140.362308" y="105.595852" style="fill: #88dae7; stroke: #88dae7"/>
     <use xlink:href="#m9d4944dd0e" x="171.296728" y="105.44976" style="fill: #88dae7; stroke: #88dae7"/>
     <use xlink:href="#m9d4944dd0e" x="194.697714" y="103.571976" style="fill: #88dae7; stroke: #88dae7"/>
     <use xlink:href="#m9d4944dd0e" x="218.098699" y="93.24568" style="fill: #88dae7; stroke: #88dae7"/>
     <use xlink:href="#m9d4944dd0e" x="249.033119" y="85.64352" style="fill: #88dae7; stroke: #88dae7"/>
     <use xlink:href="#m9d4944dd0e" x="272.434105" y="82.317798" style="fill: #88dae7; stroke: #88dae7"/>
     <use xlink:href="#m9d4944dd0e" x="295.83509" y="75.296677" style="fill: #88dae7; stroke: #88dae7"/>
     <use xlink:href="#m9d4944dd0e" x="326.769511" y="63.625302" style="fill: #88dae7; stroke: #88dae7"/>
     <use xlink:href="#m9d4944dd0e" x="350.170496" y="55.24441" style="fill: #88dae7; stroke: #88dae7"/>
     <use xlink:href="#m9d4944dd0e" x="373.571482" y="46.00968" style="fill: #88dae7; stroke: #88dae7"/>
     <use xlink:href="#m9d4944dd0e" x="382.587769" y="41.683059" style="fill: #88dae7; stroke: #88dae7"/>
    </g>
   </g>
   <g id="line2d_19">
    <path d="M 116.961322 118.1952 
L 140.362308 110.444246 
L 171.296728 110.758199 
L 194.697714 102.488718 
L 218.098699 94.537863 
L 249.033119 83.172814 
L 272.434105 83.355826 
L 295.83509 81.843025 
L 326.769511 88.05799 
L 350.170496 93.142266 
" clip-path="url(#pf571bcde70)" style="fill: none; stroke: #0d3082; stroke-width: 1.5; stroke-linecap: square"/>
    <defs>
     <path id="m247ab762bf" d="M 0 2.5 
C 0.663008 2.5 1.29895 2.236584 1.767767 1.767767 
C 2.236584 1.29895 2.5 0.663008 2.5 0 
C 2.5 -0.663008 2.236584 -1.29895 1.767767 -1.767767 
C 1.29895 -2.236584 0.663008 -2.5 0 -2.5 
C -0.663008 -2.5 -1.29895 -2.236584 -1.767767 -1.767767 
C -2.236584 -1.29895 -2.5 -0.663008 -2.5 0 
C -2.5 0.663008 -2.236584 1.29895 -1.767767 1.767767 
C -1.29895 2.236584 -0.663008 2.5 0 2.5 
z
" style="stroke: #0d3082"/>
    </defs>
    <g clip-path="url(#pf571bcde70)">
     <use xlink:href="#m247ab762bf" x="116.961322" y="118.1952" style="fill: #0d3082; stroke: #0d3082"/>
     <use xlink:href="#m247ab762bf" x="140.362308" y="110.444246" style="fill: #0d3082; stroke: #0d3082"/>
     <use xlink:href="#m247ab762bf" x="171.296728" y="110.758199" style="fill: #0d3082; stroke: #0d3082"/>
     <use xlink:href="#m247ab762bf" x="194.697714" y="102.488718" style="fill: #0d3082; stroke: #0d3082"/>
     <use xlink:href="#m247ab762bf" x="218.098699" y="94.537863" style="fill: #0d3082; stroke: #0d3082"/>
     <use xlink:href="#m247ab762bf" x="249.033119" y="83.172814" style="fill: #0d3082; stroke: #0d3082"/>
     <use xlink:href="#m247ab762bf" x="272.434105" y="83.355826" style="fill: #0d3082; stroke: #0d3082"/>
     <use xlink:href="#m247ab762bf" x="295.83509" y="81.843025" style="fill: #0d3082; stroke: #0d3082"/>
     <use xlink:href="#m247ab762bf" x="326.769511" y="88.05799" style="fill: #0d3082; stroke: #0d3082"/>
     <use xlink:href="#m247ab762bf" x="350.170496" y="93.142266" style="fill: #0d3082; stroke: #0d3082"/>
    </g>
   </g>
   <g id="patch_3">
    <path d="M 103.68 123.0336 
L 103.68 16.5888 
" style="fill: none; stroke: #000000; stroke-width: 0.8; stroke-linejoin: miter; stroke-linecap: square"/>
   </g>
   <g id="patch_4">
    <path d="M 103.68 123.0336 
L 395.869091 123.0336 
" style="fill: none; stroke: #000000; stroke-width: 0.8; stroke-linejoin: miter; stroke-linecap: square"/>
   </g>
   <g id="text_17">
    <!-- Time -->
    <g transform="translate(237.540952 10.5888) scale(0.1 -0.1)">
     <defs>
      <path id="DejaVuSans-54" d="M -19 4666 
L 3928 4666 
L 3928 4134 
L 2272 4134 
L 2272 0 
L 1638 0 
L 1638 4134 
L -19 4134 
L -19 4666 
z
" transform="scale(0.015625)"/>
      <path id="DejaVuSans-69" d="M 603 3500 
L 1178 3500 
L 1178 0 
L 603 0 
L 603 3500 
z
M 603 4863 
L 1178 4863 
L 1178 4134 
L 603 4134 
L 603 4863 
z
" transform="scale(0.015625)"/>
      <path id="DejaVuSans-6d" d="M 3328 2828 
Q 3544 3216 3844 3400 
Q 4144 3584 4550 3584 
Q 5097 3584 5394 3201 
Q 5691 2819 5691 2113 
L 5691 0 
L 5113 0 
L 5113 2094 
Q 5113 2597 4934 2840 
Q 4756 3084 4391 3084 
Q 3944 3084 3684 2787 
Q 3425 2491 3425 1978 
L 3425 0 
L 2847 0 
L 2847 2094 
Q 2847 2600 2669 2842 
Q 2491 3084 2119 3084 
Q 1678 3084 1418 2786 
Q 1159 2488 1159 1978 
L 1159 0 
L 581 0 
L 581 3500 
L 1159 3500 
L 1159 2956 
Q 1356 3278 1631 3431 
Q 1906 3584 2284 3584 
Q 2666 3584 2933 3390 
Q 3200 3197 3328 2828 
z
" transform="scale(0.015625)"/>
      <path id="DejaVuSans-65" d="M 3597 1894 
L 3597 1613 
L 953 1613 
Q 991 1019 1311 708 
Q 1631 397 2203 397 
Q 2534 397 2845 478 
Q 3156 559 3463 722 
L 3463 178 
Q 3153 47 2828 -22 
Q 2503 -91 2169 -91 
Q 1331 -91 842 396 
Q 353 884 353 1716 
Q 353 2575 817 3079 
Q 1281 3584 2069 3584 
Q 2775 3584 3186 3129 
Q 3597 2675 3597 1894 
z
M 3022 2063 
Q 3016 2534 2758 2815 
Q 2500 3097 2075 3097 
Q 1594 3097 1305 2825 
Q 1016 2553 972 2059 
L 3022 2063 
z
" transform="scale(0.015625)"/>
     </defs>
     <use xlink:href="#DejaVuSans-54"/>
     <use xlink:href="#DejaVuSans-69" x="57.958984"/>
     <use xlink:href="#DejaVuSans-6d" x="85.742188"/>
     <use xlink:href="#DejaVuSans-65" x="183.154297"/>
    </g>
   </g>
  </g>
  <g id="axes_2">
   <g id="patch_5">
    <path d="M 454.306909 123.0336 
L 746.496 123.0336 
L 746.496 16.5888 
L 454.306909 16.5888 
z
" style="fill: #ffffff"/>
   </g>
   <g id="matplotlib.axis_3">
    <g id="xtick_13">
     <g id="line2d_20">
      <g>
       <use xlink:href="#m4edf5324bb" x="467.588231" y="123.0336" style="stroke: #000000; stroke-width: 0.8"/>
      </g>
     </g>
     <g id="text_18">
      <!-- 500 -->
      <g transform="translate(461.861981 134.592663) scale(0.06 -0.06)">
       <use xlink:href="#DejaVuSans-35"/>
       <use xlink:href="#DejaVuSans-30" x="63.623047"/>
       <use xlink:href="#DejaVuSans-30" x="127.246094"/>
      </g>
     </g>
    </g>
    <g id="xtick_14">
     <g id="line2d_21">
      <g>
       <use xlink:href="#m4edf5324bb" x="490.989217" y="123.0336" style="stroke: #000000; stroke-width: 0.8"/>
      </g>
     </g>
     <g id="text_19">
      <!-- 1k -->
      <g transform="translate(487.343279 134.592663) scale(0.06 -0.06)">
       <use xlink:href="#DejaVuSans-31"/>
       <use xlink:href="#DejaVuSans-6b" x="63.623047"/>
      </g>
     </g>
    </g>
    <g id="xtick_15">
     <g id="line2d_22">
      <g>
       <use xlink:href="#m4edf5324bb" x="521.923637" y="123.0336" style="stroke: #000000; stroke-width: 0.8"/>
      </g>
     </g>
     <g id="text_20">
      <!-- 2.5k -->
      <g transform="translate(515.415512 134.592663) scale(0.06 -0.06)">
       <use xlink:href="#DejaVuSans-32"/>
       <use xlink:href="#DejaVuSans-2e" x="63.623047"/>
       <use xlink:href="#DejaVuSans-35" x="95.410156"/>
       <use xlink:href="#DejaVuSans-6b" x="159.033203"/>
      </g>
     </g>
    </g>
    <g id="xtick_16">
     <g id="line2d_23">
      <g>
       <use xlink:href="#m4edf5324bb" x="545.324623" y="123.0336" style="stroke: #000000; stroke-width: 0.8"/>
      </g>
     </g>
     <g id="text_21">
      <!-- 5k -->
      <g transform="translate(541.678685 134.592663) scale(0.06 -0.06)">
       <use xlink:href="#DejaVuSans-35"/>
       <use xlink:href="#DejaVuSans-6b" x="63.623047"/>
      </g>
     </g>
    </g>
    <g id="xtick_17">
     <g id="line2d_24">
      <g>
       <use xlink:href="#m4edf5324bb" x="568.725608" y="123.0336" style="stroke: #000000; stroke-width: 0.8"/>
      </g>
     </g>
     <g id="text_22">
      <!-- 10k -->
      <g transform="translate(563.170921 134.592663) scale(0.06 -0.06)">
       <use xlink:href="#DejaVuSans-31"/>
       <use xlink:href="#DejaVuSans-30" x="63.623047"/>
       <use xlink:href="#DejaVuSans-6b" x="127.246094"/>
      </g>
     </g>
    </g>
    <g id="xtick_18">
     <g id="line2d_25">
      <g>
       <use xlink:href="#m4edf5324bb" x="599.660028" y="123.0336" style="stroke: #000000; stroke-width: 0.8"/>
      </g>
     </g>
     <g id="text_23">
      <!-- 25k -->
      <g transform="translate(594.105341 134.592663) scale(0.06 -0.06)">
       <use xlink:href="#DejaVuSans-32"/>
       <use xlink:href="#DejaVuSans-35" x="63.623047"/>
       <use xlink:href="#DejaVuSans-6b" x="127.246094"/>
      </g>
     </g>
    </g>
    <g id="xtick_19">
     <g id="line2d_26">
      <g>
       <use xlink:href="#m4edf5324bb" x="623.061014" y="123.0336" style="stroke: #000000; stroke-width: 0.8"/>
      </g>
     </g>
     <g id="text_24">
      <!-- 50k -->
      <g transform="translate(617.506326 134.592663) scale(0.06 -0.06)">
       <use xlink:href="#DejaVuSans-35"/>
       <use xlink:href="#DejaVuSans-30" x="63.623047"/>
       <use xlink:href="#DejaVuSans-6b" x="127.246094"/>
      </g>
     </g>
    </g>
    <g id="xtick_20">
     <g id="line2d_27">
      <g>
       <use xlink:href="#m4edf5324bb" x="646.461999" y="123.0336" style="stroke: #000000; stroke-width: 0.8"/>
      </g>
     </g>
     <g id="text_25">
      <!-- 100k -->
      <g transform="translate(638.998562 134.592663) scale(0.06 -0.06)">
       <use xlink:href="#DejaVuSans-31"/>
       <use xlink:href="#DejaVuSans-30" x="63.623047"/>
       <use xlink:href="#DejaVuSans-30" x="127.246094"/>
       <use xlink:href="#DejaVuSans-6b" x="190.869141"/>
      </g>
     </g>
    </g>
    <g id="xtick_21">
     <g id="line2d_28">
      <g>
       <use xlink:href="#m4edf5324bb" x="677.39642" y="123.0336" style="stroke: #000000; stroke-width: 0.8"/>
      </g>
     </g>
     <g id="text_26">
      <!-- 250k -->
      <g transform="translate(669.932982 134.592663) scale(0.06 -0.06)">
       <use xlink:href="#DejaVuSans-32"/>
       <use xlink:href="#DejaVuSans-35" x="63.623047"/>
       <use xlink:href="#DejaVuSans-30" x="127.246094"/>
       <use xlink:href="#DejaVuSans-6b" x="190.869141"/>
      </g>
     </g>
    </g>
    <g id="xtick_22">
     <g id="line2d_29">
      <g>
       <use xlink:href="#m4edf5324bb" x="700.797405" y="123.0336" style="stroke: #000000; stroke-width: 0.8"/>
      </g>
     </g>
     <g id="text_27">
      <!-- 500k -->
      <g transform="translate(693.333968 134.592663) scale(0.06 -0.06)">
       <use xlink:href="#DejaVuSans-35"/>
       <use xlink:href="#DejaVuSans-30" x="63.623047"/>
       <use xlink:href="#DejaVuSans-30" x="127.246094"/>
       <use xlink:href="#DejaVuSans-6b" x="190.869141"/>
      </g>
     </g>
    </g>
    <g id="xtick_23">
     <g id="line2d_30">
      <g>
       <use xlink:href="#m4edf5324bb" x="724.198391" y="123.0336" style="stroke: #000000; stroke-width: 0.8"/>
      </g>
     </g>
     <g id="text_28">
      <!-- 1M -->
      <g transform="translate(719.701203 134.592663) scale(0.06 -0.06)">
       <use xlink:href="#DejaVuSans-31"/>
       <use xlink:href="#DejaVuSans-4d" x="63.623047"/>
      </g>
     </g>
    </g>
    <g id="xtick_24">
     <g id="line2d_31">
      <g>
       <use xlink:href="#m4edf5324bb" x="733.214678" y="123.0336" style="stroke: #000000; stroke-width: 0.8"/>
      </g>
     </g>
     <g id="text_29">
      <!-- 1.3M -->
      <g transform="translate(725.855303 134.592663) scale(0.06 -0.06)">
       <use xlink:href="#DejaVuSans-31"/>
       <use xlink:href="#DejaVuSans-2e" x="63.623047"/>
       <use xlink:href="#DejaVuSans-33" x="95.410156"/>
       <use xlink:href="#DejaVuSans-4d" x="159.033203"/>
      </g>
     </g>
    </g>
   </g>
   <g id="matplotlib.axis_4">
    <g id="ytick_5">
     <g id="line2d_32">
      <g>
       <use xlink:href="#m4aaf608474" x="454.306909" y="117.495749" style="stroke: #000000; stroke-width: 0.8"/>
      </g>
     </g>
     <g id="text_30">
      <!-- 2 -->
      <g transform="translate(440.944409 121.294968) scale(0.1 -0.1)">
       <use xlink:href="#DejaVuSans-32"/>
      </g>
     </g>
    </g>
    <g id="ytick_6">
     <g id="line2d_33">
      <g>
       <use xlink:href="#m4aaf608474" x="454.306909" y="91.103975" style="stroke: #000000; stroke-width: 0.8"/>
      </g>
     </g>
     <g id="text_31">
      <!-- 3 -->
      <g transform="translate(440.944409 94.903194) scale(0.1 -0.1)">
       <use xlink:href="#DejaVuSans-33"/>
      </g>
     </g>
    </g>
    <g id="ytick_7">
     <g id="line2d_34">
      <g>
       <use xlink:href="#m4aaf608474" x="454.306909" y="64.712201" style="stroke: #000000; stroke-width: 0.8"/>
      </g>
     </g>
     <g id="text_32">
      <!-- 4 -->
      <g transform="translate(440.944409 68.51142) scale(0.1 -0.1)">
       <use xlink:href="#DejaVuSans-34"/>
      </g>
     </g>
    </g>
    <g id="ytick_8">
     <g id="line2d_35">
      <g>
       <use xlink:href="#m4aaf608474" x="454.306909" y="38.320427" style="stroke: #000000; stroke-width: 0.8"/>
      </g>
     </g>
     <g id="text_33">
      <!-- 5 -->
      <g transform="translate(440.944409 42.119645) scale(0.1 -0.1)">
       <use xlink:href="#DejaVuSans-35"/>
      </g>
     </g>
    </g>
   </g>
   <g id="line2d_36">
    <path d="M 467.588231 50.928348 
L 490.989217 50.912712 
L 521.923637 50.886191 
L 545.324623 50.763342 
L 568.725608 50.400234 
L 599.660028 49.476785 
L 623.061014 47.750786 
L 646.461999 44.401099 
L 677.39642 38.005981 
L 700.797405 31.628096 
L 724.198391 24.769957 
L 733.214678 21.4272 
" clip-path="url(#p2b18f66ec1)" style="fill: none; stroke: #ff8133; stroke-width: 1.5; stroke-linecap: square"/>
    <g clip-path="url(#p2b18f66ec1)">
     <use xlink:href="#m347d4973ce" x="467.588231" y="50.928348" style="fill: #ff8133; stroke: #ff8133"/>
     <use xlink:href="#m347d4973ce" x="490.989217" y="50.912712" style="fill: #ff8133; stroke: #ff8133"/>
     <use xlink:href="#m347d4973ce" x="521.923637" y="50.886191" style="fill: #ff8133; stroke: #ff8133"/>
     <use xlink:href="#m347d4973ce" x="545.324623" y="50.763342" style="fill: #ff8133; stroke: #ff8133"/>
     <use xlink:href="#m347d4973ce" x="568.725608" y="50.400234" style="fill: #ff8133; stroke: #ff8133"/>
     <use xlink:href="#m347d4973ce" x="599.660028" y="49.476785" style="fill: #ff8133; stroke: #ff8133"/>
     <use xlink:href="#m347d4973ce" x="623.061014" y="47.750786" style="fill: #ff8133; stroke: #ff8133"/>
     <use xlink:href="#m347d4973ce" x="646.461999" y="44.401099" style="fill: #ff8133; stroke: #ff8133"/>
     <use xlink:href="#m347d4973ce" x="677.39642" y="38.005981" style="fill: #ff8133; stroke: #ff8133"/>
     <use xlink:href="#m347d4973ce" x="700.797405" y="31.628096" style="fill: #ff8133; stroke: #ff8133"/>
     <use xlink:href="#m347d4973ce" x="724.198391" y="24.769957" style="fill: #ff8133; stroke: #ff8133"/>
     <use xlink:href="#m347d4973ce" x="733.214678" y="21.4272" style="fill: #ff8133; stroke: #ff8133"/>
    </g>
   </g>
   <g id="line2d_37">
    <path d="M 467.588231 118.1952 
L 490.989217 111.569368 
L 521.923637 101.99048 
L 545.324623 94.347648 
L 568.725608 86.578655 
L 599.660028 76.202633 
L 623.061014 68.429285 
L 646.461999 60.505972 
L 677.39642 50.026386 
L 700.797405 42.103678 
L 724.198391 34.151911 
L 733.214678 29.889265 
" clip-path="url(#p2b18f66ec1)" style="fill: none; stroke: #88dae7; stroke-width: 1.5; stroke-linecap: square"/>
    <g clip-path="url(#p2b18f66ec1)">
     <use xlink:href="#m9d4944dd0e" x="467.588231" y="118.1952" style="fill: #88dae7; stroke: #88dae7"/>
     <use xlink:href="#m9d4944dd0e" x="490.989217" y="111.569368" style="fill: #88dae7; stroke: #88dae7"/>
     <use xlink:href="#m9d4944dd0e" x="521.923637" y="101.99048" style="fill: #88dae7; stroke: #88dae7"/>
     <use xlink:href="#m9d4944dd0e" x="545.324623" y="94.347648" style="fill: #88dae7; stroke: #88dae7"/>
     <use xlink:href="#m9d4944dd0e" x="568.725608" y="86.578655" style="fill: #88dae7; stroke: #88dae7"/>
     <use xlink:href="#m9d4944dd0e" x="599.660028" y="76.202633" style="fill: #88dae7; stroke: #88dae7"/>
     <use xlink:href="#m9d4944dd0e" x="623.061014" y="68.429285" style="fill: #88dae7; stroke: #88dae7"/>
     <use xlink:href="#m9d4944dd0e" x="646.461999" y="60.505972" style="fill: #88dae7; stroke: #88dae7"/>
     <use xlink:href="#m9d4944dd0e" x="677.39642" y="50.026386" style="fill: #88dae7; stroke: #88dae7"/>
     <use xlink:href="#m9d4944dd0e" x="700.797405" y="42.103678" style="fill: #88dae7; stroke: #88dae7"/>
     <use xlink:href="#m9d4944dd0e" x="724.198391" y="34.151911" style="fill: #88dae7; stroke: #88dae7"/>
     <use xlink:href="#m9d4944dd0e" x="733.214678" y="29.889265" style="fill: #88dae7; stroke: #88dae7"/>
    </g>
   </g>
   <g id="line2d_38">
    <path d="M 467.588231 107.742052 
L 490.989217 102.045988 
L 521.923637 89.657217 
L 545.324623 81.43178 
L 568.725608 72.948289 
L 599.660028 62.333445 
L 623.061014 54.050753 
L 646.461999 45.715964 
L 677.39642 34.77847 
L 700.797405 26.521587 
" clip-path="url(#p2b18f66ec1)" style="fill: none; stroke: #0d3082; stroke-width: 1.5; stroke-linecap: square"/>
    <g clip-path="url(#p2b18f66ec1)">
     <use xlink:href="#m247ab762bf" x="467.588231" y="107.742052" style="fill: #0d3082; stroke: #0d3082"/>
     <use xlink:href="#m247ab762bf" x="490.989217" y="102.045988" style="fill: #0d3082; stroke: #0d3082"/>
     <use xlink:href="#m247ab762bf" x="521.923637" y="89.657217" style="fill: #0d3082; stroke: #0d3082"/>
     <use xlink:href="#m247ab762bf" x="545.324623" y="81.43178" style="fill: #0d3082; stroke: #0d3082"/>
     <use xlink:href="#m247ab762bf" x="568.725608" y="72.948289" style="fill: #0d3082; stroke: #0d3082"/>
     <use xlink:href="#m247ab762bf" x="599.660028" y="62.333445" style="fill: #0d3082; stroke: #0d3082"/>
     <use xlink:href="#m247ab762bf" x="623.061014" y="54.050753" style="fill: #0d3082; stroke: #0d3082"/>
     <use xlink:href="#m247ab762bf" x="646.461999" y="45.715964" style="fill: #0d3082; stroke: #0d3082"/>
     <use xlink:href="#m247ab762bf" x="677.39642" y="34.77847" style="fill: #0d3082; stroke: #0d3082"/>
     <use xlink:href="#m247ab762bf" x="700.797405" y="26.521587" style="fill: #0d3082; stroke: #0d3082"/>
    </g>
   </g>
   <g id="patch_6">
    <path d="M 454.306909 123.0336 
L 454.306909 16.5888 
" style="fill: none; stroke: #000000; stroke-width: 0.8; stroke-linejoin: miter; stroke-linecap: square"/>
   </g>
   <g id="patch_7">
    <path d="M 454.306909 123.0336 
L 746.496 123.0336 
" style="fill: none; stroke: #000000; stroke-width: 0.8; stroke-linejoin: miter; stroke-linecap: square"/>
   </g>
   <g id="text_34">
    <!-- Memory -->
    <g transform="translate(580.066298 10.5888) scale(0.1 -0.1)">
     <defs>
      <path id="DejaVuSans-6f" d="M 1959 3097 
Q 1497 3097 1228 2736 
Q 959 2375 959 1747 
Q 959 1119 1226 758 
Q 1494 397 1959 397 
Q 2419 397 2687 759 
Q 2956 1122 2956 1747 
Q 2956 2369 2687 2733 
Q 2419 3097 1959 3097 
z
M 1959 3584 
Q 2709 3584 3137 3096 
Q 3566 2609 3566 1747 
Q 3566 888 3137 398 
Q 2709 -91 1959 -91 
Q 1206 -91 779 398 
Q 353 888 353 1747 
Q 353 2609 779 3096 
Q 1206 3584 1959 3584 
z
" transform="scale(0.015625)"/>
      <path id="DejaVuSans-72" d="M 2631 2963 
Q 2534 3019 2420 3045 
Q 2306 3072 2169 3072 
Q 1681 3072 1420 2755 
Q 1159 2438 1159 1844 
L 1159 0 
L 581 0 
L 581 3500 
L 1159 3500 
L 1159 2956 
Q 1341 3275 1631 3429 
Q 1922 3584 2338 3584 
Q 2397 3584 2469 3576 
Q 2541 3569 2628 3553 
L 2631 2963 
z
" transform="scale(0.015625)"/>
      <path id="DejaVuSans-79" d="M 2059 -325 
Q 1816 -950 1584 -1140 
Q 1353 -1331 966 -1331 
L 506 -1331 
L 506 -850 
L 844 -850 
Q 1081 -850 1212 -737 
Q 1344 -625 1503 -206 
L 1606 56 
L 191 3500 
L 800 3500 
L 1894 763 
L 2988 3500 
L 3597 3500 
L 2059 -325 
z
" transform="scale(0.015625)"/>
     </defs>
     <use xlink:href="#DejaVuSans-4d"/>
     <use xlink:href="#DejaVuSans-65" x="86.279297"/>
     <use xlink:href="#DejaVuSans-6d" x="147.802734"/>
     <use xlink:href="#DejaVuSans-6f" x="245.214844"/>
     <use xlink:href="#DejaVuSans-72" x="306.396484"/>
     <use xlink:href="#DejaVuSans-79" x="347.509766"/>
    </g>
   </g>
   <g id="legend_1">
    <g id="patch_8">
     <path d="M 748.496 123.0336 
L 817.075687 123.0336 
Q 819.075687 123.0336 819.075687 121.0336 
L 819.075687 77.999225 
Q 819.075687 75.999225 817.075687 75.999225 
L 748.496 75.999225 
Q 746.496 75.999225 746.496 77.999225 
L 746.496 121.0336 
Q 746.496 123.0336 748.496 123.0336 
z
" style="fill: #ffffff; opacity: 0.8; stroke: #ffffff; stroke-linejoin: miter"/>
    </g>
    <g id="line2d_39">
     <path d="M 750.496 84.097663 
L 760.496 84.097663 
L 770.496 84.097663 
" style="fill: none; stroke: #ff8133; stroke-width: 1.5; stroke-linecap: square"/>
     <g>
      <use xlink:href="#m347d4973ce" x="760.496" y="84.097663" style="fill: #ff8133; stroke: #ff8133"/>
     </g>
    </g>
    <g id="text_35">
     <!-- SIMBA -->
     <g transform="translate(778.496 87.597663) scale(0.1 -0.1)">
      <defs>
       <path id="DejaVuSans-53" d="M 3425 4513 
L 3425 3897 
Q 3066 4069 2747 4153 
Q 2428 4238 2131 4238 
Q 1616 4238 1336 4038 
Q 1056 3838 1056 3469 
Q 1056 3159 1242 3001 
Q 1428 2844 1947 2747 
L 2328 2669 
Q 3034 2534 3370 2195 
Q 3706 1856 3706 1288 
Q 3706 609 3251 259 
Q 2797 -91 1919 -91 
Q 1588 -91 1214 -16 
Q 841 59 441 206 
L 441 856 
Q 825 641 1194 531 
Q 1563 422 1919 422 
Q 2459 422 2753 634 
Q 3047 847 3047 1241 
Q 3047 1584 2836 1778 
Q 2625 1972 2144 2069 
L 1759 2144 
Q 1053 2284 737 2584 
Q 422 2884 422 3419 
Q 422 4038 858 4394 
Q 1294 4750 2059 4750 
Q 2388 4750 2728 4690 
Q 3069 4631 3425 4513 
z
" transform="scale(0.015625)"/>
       <path id="DejaVuSans-49" d="M 628 4666 
L 1259 4666 
L 1259 0 
L 628 0 
L 628 4666 
z
" transform="scale(0.015625)"/>
       <path id="DejaVuSans-42" d="M 1259 2228 
L 1259 519 
L 2272 519 
Q 2781 519 3026 730 
Q 3272 941 3272 1375 
Q 3272 1813 3026 2020 
Q 2781 2228 2272 2228 
L 1259 2228 
z
M 1259 4147 
L 1259 2741 
L 2194 2741 
Q 2656 2741 2882 2914 
Q 3109 3088 3109 3444 
Q 3109 3797 2882 3972 
Q 2656 4147 2194 4147 
L 1259 4147 
z
M 628 4666 
L 2241 4666 
Q 2963 4666 3353 4366 
Q 3744 4066 3744 3513 
Q 3744 3084 3544 2831 
Q 3344 2578 2956 2516 
Q 3422 2416 3680 2098 
Q 3938 1781 3938 1306 
Q 3938 681 3513 340 
Q 3088 0 2303 0 
L 628 0 
L 628 4666 
z
" transform="scale(0.015625)"/>
       <path id="DejaVuSans-41" d="M 2188 4044 
L 1331 1722 
L 3047 1722 
L 2188 4044 
z
M 1831 4666 
L 2547 4666 
L 4325 0 
L 3669 0 
L 3244 1197 
L 1141 1197 
L 716 0 
L 50 0 
L 1831 4666 
z
" transform="scale(0.015625)"/>
      </defs>
      <use xlink:href="#DejaVuSans-53"/>
      <use xlink:href="#DejaVuSans-49" x="63.476562"/>
      <use xlink:href="#DejaVuSans-4d" x="92.96875"/>
      <use xlink:href="#DejaVuSans-42" x="179.248047"/>
      <use xlink:href="#DejaVuSans-41" x="247.851562"/>
     </g>
    </g>
    <g id="line2d_40">
     <path d="M 750.496 98.775788 
L 760.496 98.775788 
L 770.496 98.775788 
" style="fill: none; stroke: #88dae7; stroke-width: 1.5; stroke-linecap: square"/>
     <g>
      <use xlink:href="#m9d4944dd0e" x="760.496" y="98.775788" style="fill: #88dae7; stroke: #88dae7"/>
     </g>
    </g>
    <g id="text_36">
     <!-- Scanpy -->
     <g transform="translate(778.496 102.275788) scale(0.1 -0.1)">
      <defs>
       <path id="DejaVuSans-63" d="M 3122 3366 
L 3122 2828 
Q 2878 2963 2633 3030 
Q 2388 3097 2138 3097 
Q 1578 3097 1268 2742 
Q 959 2388 959 1747 
Q 959 1106 1268 751 
Q 1578 397 2138 397 
Q 2388 397 2633 464 
Q 2878 531 3122 666 
L 3122 134 
Q 2881 22 2623 -34 
Q 2366 -91 2075 -91 
Q 1284 -91 818 406 
Q 353 903 353 1747 
Q 353 2603 823 3093 
Q 1294 3584 2113 3584 
Q 2378 3584 2631 3529 
Q 2884 3475 3122 3366 
z
" transform="scale(0.015625)"/>
       <path id="DejaVuSans-61" d="M 2194 1759 
Q 1497 1759 1228 1600 
Q 959 1441 959 1056 
Q 959 750 1161 570 
Q 1363 391 1709 391 
Q 2188 391 2477 730 
Q 2766 1069 2766 1631 
L 2766 1759 
L 2194 1759 
z
M 3341 1997 
L 3341 0 
L 2766 0 
L 2766 531 
Q 2569 213 2275 61 
Q 1981 -91 1556 -91 
Q 1019 -91 701 211 
Q 384 513 384 1019 
Q 384 1609 779 1909 
Q 1175 2209 1959 2209 
L 2766 2209 
L 2766 2266 
Q 2766 2663 2505 2880 
Q 2244 3097 1772 3097 
Q 1472 3097 1187 3025 
Q 903 2953 641 2809 
L 641 3341 
Q 956 3463 1253 3523 
Q 1550 3584 1831 3584 
Q 2591 3584 2966 3190 
Q 3341 2797 3341 1997 
z
" transform="scale(0.015625)"/>
       <path id="DejaVuSans-6e" d="M 3513 2113 
L 3513 0 
L 2938 0 
L 2938 2094 
Q 2938 2591 2744 2837 
Q 2550 3084 2163 3084 
Q 1697 3084 1428 2787 
Q 1159 2491 1159 1978 
L 1159 0 
L 581 0 
L 581 3500 
L 1159 3500 
L 1159 2956 
Q 1366 3272 1645 3428 
Q 1925 3584 2291 3584 
Q 2894 3584 3203 3211 
Q 3513 2838 3513 2113 
z
" transform="scale(0.015625)"/>
       <path id="DejaVuSans-70" d="M 1159 525 
L 1159 -1331 
L 581 -1331 
L 581 3500 
L 1159 3500 
L 1159 2969 
Q 1341 3281 1617 3432 
Q 1894 3584 2278 3584 
Q 2916 3584 3314 3078 
Q 3713 2572 3713 1747 
Q 3713 922 3314 415 
Q 2916 -91 2278 -91 
Q 1894 -91 1617 61 
Q 1341 213 1159 525 
z
M 3116 1747 
Q 3116 2381 2855 2742 
Q 2594 3103 2138 3103 
Q 1681 3103 1420 2742 
Q 1159 2381 1159 1747 
Q 1159 1113 1420 752 
Q 1681 391 2138 391 
Q 2594 391 2855 752 
Q 3116 1113 3116 1747 
z
" transform="scale(0.015625)"/>
      </defs>
      <use xlink:href="#DejaVuSans-53"/>
      <use xlink:href="#DejaVuSans-63" x="63.476562"/>
      <use xlink:href="#DejaVuSans-61" x="118.457031"/>
      <use xlink:href="#DejaVuSans-6e" x="179.736328"/>
      <use xlink:href="#DejaVuSans-70" x="243.115234"/>
      <use xlink:href="#DejaVuSans-79" x="306.591797"/>
     </g>
    </g>
    <g id="line2d_41">
     <path d="M 750.496 113.453913 
L 760.496 113.453913 
L 770.496 113.453913 
" style="fill: none; stroke: #0d3082; stroke-width: 1.5; stroke-linecap: square"/>
     <g>
      <use xlink:href="#m247ab762bf" x="760.496" y="113.453913" style="fill: #0d3082; stroke: #0d3082"/>
     </g>
    </g>
    <g id="text_37">
     <!-- Seurat -->
     <g transform="translate(778.496 116.953913) scale(0.1 -0.1)">
      <defs>
       <path id="DejaVuSans-75" d="M 544 1381 
L 544 3500 
L 1119 3500 
L 1119 1403 
Q 1119 906 1312 657 
Q 1506 409 1894 409 
Q 2359 409 2629 706 
Q 2900 1003 2900 1516 
L 2900 3500 
L 3475 3500 
L 3475 0 
L 2900 0 
L 2900 538 
Q 2691 219 2414 64 
Q 2138 -91 1772 -91 
Q 1169 -91 856 284 
Q 544 659 544 1381 
z
M 1991 3584 
L 1991 3584 
z
" transform="scale(0.015625)"/>
       <path id="DejaVuSans-74" d="M 1172 4494 
L 1172 3500 
L 2356 3500 
L 2356 3053 
L 1172 3053 
L 1172 1153 
Q 1172 725 1289 603 
Q 1406 481 1766 481 
L 2356 481 
L 2356 0 
L 1766 0 
Q 1100 0 847 248 
Q 594 497 594 1153 
L 594 3053 
L 172 3053 
L 172 3500 
L 594 3500 
L 594 4494 
L 1172 4494 
z
" transform="scale(0.015625)"/>
      </defs>
      <use xlink:href="#DejaVuSans-53"/>
      <use xlink:href="#DejaVuSans-65" x="63.476562"/>
      <use xlink:href="#DejaVuSans-75" x="125"/>
      <use xlink:href="#DejaVuSans-72" x="188.378906"/>
      <use xlink:href="#DejaVuSans-61" x="229.492188"/>
      <use xlink:href="#DejaVuSans-74" x="290.771484"/>
     </g>
    </g>
   </g>
  </g>
 </g>
 <defs>
  <clipPath id="pf571bcde70">
   <rect x="103.68" y="16.5888" width="292.189091" height="106.4448"/>
  </clipPath>
  <clipPath id="p2b18f66ec1">
   <rect x="454.306909" y="16.5888" width="292.189091" height="106.4448"/>
  </clipPath>
 </defs>
</svg>
