<?xml version="1.0" encoding="utf-8"?>
<!-- Generator: Adobe Illustrator 26.3.1, SVG Export Plug-In . SVG Version: 6.00 Build 0)  -->
<svg version="1.1" id="Layer_1" xmlns="http://www.w3.org/2000/svg" xmlns:xlink="http://www.w3.org/1999/xlink" x="0px" y="0px"
	 viewBox="0 0 612 792" style="enable-background:new 0 0 612 792;" xml:space="preserve">
<style type="text/css">
	.st0{fill:#FFFFFF;}
	.st1{fill:#ECECEC;}
	.st2{fill:none;stroke:#010101;stroke-width:0.8;stroke-linecap:square;}
	.st3{fill:none;stroke:#ECECEC;stroke-width:0.8;stroke-linecap:square;stroke-linejoin:round;}
	.st4{fill:#010101;stroke:#010101;stroke-width:0.8;stroke-linejoin:round;}
	.st5{fill:none;stroke:#010101;stroke-linecap:square;stroke-linejoin:round;}
	.st6{fill:#DC1E3E;}
	.st7{fill:#4C87C6;}
	.st8{fill:#010101;}
	.st9{fill:#231F20;}
	.st10{font-family:'ArialMT';}
	.st11{font-size:8px;}
	.st12{font-family:'Arial-BoldMT';}
</style>
<rect x="0" class="st0" width="612" height="312.8"/>
<path class="st1" d="M62.4,41.5h94.7V15.6H62.4C62.4,15.6,62.4,41.5,62.4,41.5z"/>
<path class="st2" d="M62.4,41.5V15.6"/>
<path class="st2" d="M157.1,41.5V15.6"/>
<path class="st2" d="M62.4,41.5h94.7"/>
<path class="st2" d="M62.4,15.6h94.7"/>
<path class="st1" d="M161.8,41.5h94.7V15.6h-94.7C161.8,15.6,161.8,41.5,161.8,41.5z"/>
<path class="st2" d="M161.8,41.5V15.6"/>
<path class="st2" d="M256.5,41.5V15.6"/>
<path class="st2" d="M161.8,41.5h94.7"/>
<path class="st2" d="M161.8,15.6h94.7"/>
<path class="st1" d="M261.3,41.5H356V15.6h-94.7C261.3,15.6,261.3,41.5,261.3,41.5z"/>
<path class="st2" d="M261.3,41.5V15.6"/>
<path class="st2" d="M356,41.5V15.6"/>
<path class="st2" d="M261.3,41.5H356"/>
<path class="st2" d="M261.3,15.6H356"/>
<path class="st1" d="M360.7,41.5h94.7V15.6h-94.7C360.7,15.6,360.7,41.5,360.7,41.5z"/>
<path class="st2" d="M360.7,41.5V15.6"/>
<path class="st2" d="M455.4,41.5V15.6"/>
<path class="st2" d="M360.7,41.5h94.7"/>
<path class="st2" d="M360.7,15.6h94.7"/>
<path class="st1" d="M460.1,41.5h94.7V15.6h-94.7L460.1,41.5L460.1,41.5z"/>
<path class="st2" d="M460.1,41.5V15.6"/>
<path class="st2" d="M554.8,41.5V15.6"/>
<path class="st2" d="M460.1,41.5h94.7"/>
<path class="st2" d="M460.1,15.6h94.7"/>
<path class="st1" d="M554.8,116.8h25.9V41.5h-25.9V116.8z"/>
<path class="st2" d="M554.8,116.8V41.5"/>
<path class="st2" d="M580.8,116.8V41.5"/>
<path class="st2" d="M554.8,116.8h25.9"/>
<path class="st2" d="M554.8,41.5h25.9"/>
<path class="st1" d="M554.8,195.8h25.9v-75.2h-25.9V195.8z"/>
<path class="st2" d="M554.8,195.8v-75.2"/>
<path class="st2" d="M580.8,195.8v-75.2"/>
<path class="st2" d="M554.8,195.8h25.9"/>
<path class="st2" d="M554.8,120.5h25.9"/>
<path class="st1" d="M554.8,274.8h25.9v-75.2h-25.9V274.8z"/>
<path class="st2" d="M554.8,274.8v-75.2"/>
<path class="st2" d="M580.8,274.8v-75.2"/>
<path class="st2" d="M554.8,274.8h25.9"/>
<path class="st2" d="M554.8,199.5h25.9"/>
<g id="xtick_1">
	<g id="line2d_1">
		<path class="st3" d="M70.3,116.8V41.5"/>
	</g>
	<g id="line2d_2">
		<path id="mf2f81012c6" class="st4" d="M70.3,116.8L70.3,116.8"/>
	</g>
</g>
<g id="xtick_2">
	<g id="line2d_3">
		<path class="st3" d="M90,116.8V41.5"/>
	</g>
	<g id="line2d_4">
		<path id="mf2f81012c6-2" class="st4" d="M90,116.8L90,116.8"/>
	</g>
</g>
<g id="xtick_3">
	<g id="line2d_5">
		<path class="st3" d="M109.7,116.8V41.5"/>
	</g>
	<g id="line2d_6">
		<path id="mf2f81012c6-3" class="st4" d="M109.7,116.8L109.7,116.8"/>
	</g>
</g>
<g id="xtick_4">
	<g id="line2d_7">
		<path class="st3" d="M129.5,116.8V41.5"/>
	</g>
	<g id="line2d_8">
		<path id="mf2f81012c6-4" class="st4" d="M129.5,116.8L129.5,116.8"/>
	</g>
</g>
<g id="xtick_5">
	<g id="line2d_9">
		<path class="st3" d="M149.2,116.8V41.5"/>
	</g>
	<g id="line2d_10">
		<path id="mf2f81012c6-5" class="st4" d="M149.2,116.8L149.2,116.8"/>
	</g>
</g>
<path class="st3" d="M62.4,104.2h94.7"/>
<path id="m8214ff4b51" class="st4" d="M62.4,104.2h-3.5"/>
<path class="st3" d="M62.4,79.1h94.7"/>
<path id="m8214ff4b51-2" class="st4" d="M62.4,79.1h-3.5"/>
<path class="st3" d="M62.4,54h94.7"/>
<path id="m8214ff4b51-3" class="st4" d="M62.4,54h-3.5"/>
<path class="st2" d="M62.4,116.8V41.5"/>
<path class="st2" d="M157.1,116.8V41.5"/>
<path class="st2" d="M62.4,116.8h94.7"/>
<path class="st2" d="M62.4,41.5h94.7"/>
<path class="st5" d="M94.2,104.2h9.5"/>
<path class="st5" d="M95.8,79.1h-0.1"/>
<path class="st5" d="M92.6,54h1.7"/>
<path id="C2_0_0928a0ba94" class="st6" d="M94.2,108.1c1,0,2-0.4,2.7-1.1c0.7-0.7,1.1-1.7,1.1-2.7s-0.4-2-1.1-2.7
	c-0.7-0.7-1.7-1.1-2.7-1.1s-2,0.4-2.7,1.1c-0.7,0.7-1.1,1.7-1.1,2.7s0.4,2,1.1,2.7C92.2,107.7,93.2,108.1,94.2,108.1z"/>
<path id="C2_0_0928a0ba94-2" class="st6" d="M95.8,83c1,0,2-0.4,2.7-1.1c0.7-0.7,1.1-1.7,1.1-2.7s-0.4-2-1.1-2.7
	c-0.7-0.7-1.7-1.1-2.7-1.1s-2,0.4-2.7,1.1c-0.7,0.7-1.1,1.7-1.1,2.7s0.4,2,1.1,2.7C93.8,82.6,94.8,83,95.8,83z"/>
<path id="C2_0_0928a0ba94-3" class="st6" d="M92.6,57.9c1,0,2-0.4,2.7-1.1c0.7-0.7,1.1-1.7,1.1-2.7s-0.4-2-1.1-2.7
	c-0.7-0.7-1.7-1.1-2.7-1.1s-2,0.4-2.7,1.1c-0.7,0.7-1.1,1.7-1.1,2.7s0.4,2,1.1,2.7C90.6,57.5,91.6,57.9,92.6,57.9z"/>
<path id="C3_0_bf73b4520a" class="st7" d="M103.7,108.1c1,0,2-0.4,2.7-1.1c0.7-0.7,1.1-1.7,1.1-2.7s-0.4-2-1.1-2.7
	c-0.7-0.7-1.7-1.1-2.7-1.1s-2,0.4-2.7,1.1c-0.7,0.7-1.1,1.7-1.1,2.7s0.4,2,1.1,2.7C101.7,107.7,102.7,108.1,103.7,108.1z"/>
<path id="C3_0_bf73b4520a-2" class="st7" d="M95.7,83c1,0,2-0.4,2.7-1.1c0.7-0.7,1.1-1.7,1.1-2.7s-0.4-2-1.1-2.7
	c-0.7-0.7-1.7-1.1-2.7-1.1s-2,0.4-2.7,1.1c-0.7,0.7-1.1,1.7-1.1,2.7s0.4,2,1.1,2.7C93.7,82.6,94.6,83,95.7,83z"/>
<path id="C3_0_bf73b4520a-3" class="st7" d="M94.2,57.9c1,0,2-0.4,2.7-1.1c0.7-0.7,1.1-1.7,1.1-2.7s-0.4-2-1.1-2.7
	c-0.7-0.7-1.7-1.1-2.7-1.1s-2,0.4-2.7,1.1c-0.7,0.7-1.1,1.7-1.1,2.7s0.4,2,1.1,2.7C92.2,57.5,93.2,57.9,94.2,57.9z"/>
<g id="xtick_6">
	<g id="line2d_20">
		<path class="st3" d="M169.7,116.8V41.5"/>
	</g>
	<g id="line2d_21">
		<path id="mf2f81012c6-6" class="st4" d="M169.7,116.8L169.7,116.8"/>
	</g>
</g>
<g id="xtick_7">
	<g id="line2d_22">
		<path class="st3" d="M189.4,116.8V41.5"/>
	</g>
	<g id="line2d_23">
		<path id="mf2f81012c6-7" class="st4" d="M189.4,116.8L189.4,116.8"/>
	</g>
</g>
<g id="xtick_8">
	<g id="line2d_24">
		<path class="st3" d="M209.2,116.8V41.5"/>
	</g>
	<g id="line2d_25">
		<path id="mf2f81012c6-8" class="st4" d="M209.2,116.8L209.2,116.8"/>
	</g>
</g>
<g id="xtick_9">
	<g id="line2d_26">
		<path class="st3" d="M228.9,116.8V41.5"/>
	</g>
	<g id="line2d_27">
		<path id="mf2f81012c6-9" class="st4" d="M228.9,116.8L228.9,116.8"/>
	</g>
</g>
<g id="xtick_10">
	<g id="line2d_28">
		<path class="st3" d="M248.6,116.8V41.5"/>
	</g>
	<g id="line2d_29">
		<path id="mf2f81012c6-10" class="st4" d="M248.6,116.8L248.6,116.8"/>
	</g>
</g>
<g id="ytick_4">
	<g id="line2d_30">
		<path class="st3" d="M161.8,104.2h94.7"/>
	</g>
	<g id="line2d_31">
		<path id="mf15f803dce" class="st4" d="M161.8,104.2L161.8,104.2"/>
	</g>
</g>
<g id="ytick_5">
	<g id="line2d_32">
		<path class="st3" d="M161.8,79.1h94.7"/>
	</g>
	<g id="line2d_33">
		<path id="mf15f803dce-2" class="st4" d="M161.8,79.1L161.8,79.1"/>
	</g>
</g>
<g id="ytick_6">
	<g id="line2d_34">
		<path class="st3" d="M161.8,54h94.7"/>
	</g>
	<g id="line2d_35">
		<path id="mf15f803dce-3" class="st4" d="M161.8,54L161.8,54"/>
	</g>
</g>
<path class="st2" d="M161.8,116.8V41.5"/>
<path class="st2" d="M256.5,116.8V41.5"/>
<path class="st2" d="M161.8,116.8h94.7"/>
<path class="st2" d="M161.8,41.5h94.7"/>
<path class="st5" d="M209.2,104.2L209.2,104.2"/>
<path class="st5" d="M209.2,79.1L209.2,79.1"/>
<path class="st5" d="M209.2,54L209.2,54"/>
<path id="C6_0_aeee453328" class="st6" d="M209.2,108.1c1,0,2-0.4,2.7-1.1c0.7-0.7,1.1-1.7,1.1-2.7s-0.4-2-1.1-2.7
	c-0.7-0.7-1.7-1.1-2.7-1.1s-2,0.4-2.7,1.1c-0.7,0.7-1.1,1.7-1.1,2.7s0.4,2,1.1,2.7C207.2,107.7,208.1,108.1,209.2,108.1z"/>
<path id="C6_0_aeee453328-2" class="st6" d="M209.2,83c1,0,2-0.4,2.7-1.1c0.7-0.7,1.1-1.7,1.1-2.7s-0.4-2-1.1-2.7
	c-0.7-0.7-1.7-1.1-2.7-1.1s-2,0.4-2.7,1.1c-0.7,0.7-1.1,1.7-1.1,2.7s0.4,2,1.1,2.7C207.2,82.6,208.1,83,209.2,83z"/>
<path id="C6_0_aeee453328-3" class="st6" d="M209.2,57.9c1,0,2-0.4,2.7-1.1c0.7-0.7,1.1-1.7,1.1-2.7s-0.4-2-1.1-2.7
	c-0.7-0.7-1.7-1.1-2.7-1.1s-2,0.4-2.7,1.1c-0.7,0.7-1.1,1.7-1.1,2.7s0.4,2,1.1,2.7C207.2,57.5,208.1,57.9,209.2,57.9z"/>
<path id="C7_0_7feac8cc93" class="st7" d="M209.2,108.1c1,0,2-0.4,2.7-1.1c0.7-0.7,1.1-1.7,1.1-2.7s-0.4-2-1.1-2.7
	c-0.7-0.7-1.7-1.1-2.7-1.1s-2,0.4-2.7,1.1c-0.7,0.7-1.1,1.7-1.1,2.7s0.4,2,1.1,2.7C207.2,107.7,208.1,108.1,209.2,108.1z"/>
<path id="C7_0_7feac8cc93-2" class="st7" d="M209.2,83c1,0,2-0.4,2.7-1.1c0.7-0.7,1.1-1.7,1.1-2.7s-0.4-2-1.1-2.7
	c-0.7-0.7-1.7-1.1-2.7-1.1s-2,0.4-2.7,1.1c-0.7,0.7-1.1,1.7-1.1,2.7s0.4,2,1.1,2.7C207.2,82.6,208.1,83,209.2,83z"/>
<path id="C7_0_7feac8cc93-3" class="st7" d="M209.2,57.9c1,0,2-0.4,2.7-1.1c0.7-0.7,1.1-1.7,1.1-2.7s-0.4-2-1.1-2.7
	c-0.7-0.7-1.7-1.1-2.7-1.1s-2,0.4-2.7,1.1c-0.7,0.7-1.1,1.7-1.1,2.7s0.4,2,1.1,2.7C207.2,57.5,208.1,57.9,209.2,57.9z"/>
<g id="xtick_11">
	<g id="line2d_39">
		<path class="st3" d="M269.1,116.8V41.5"/>
	</g>
	<g id="line2d_40">
		<path id="mf2f81012c6-11" class="st4" d="M269.1,116.8L269.1,116.8"/>
	</g>
</g>
<g id="xtick_12">
	<g id="line2d_41">
		<path class="st3" d="M288.9,116.8V41.5"/>
	</g>
	<g id="line2d_42">
		<path id="mf2f81012c6-12" class="st4" d="M288.9,116.8L288.9,116.8"/>
	</g>
</g>
<g id="xtick_13">
	<g id="line2d_43">
		<path class="st3" d="M308.6,116.8V41.5"/>
	</g>
	<g id="line2d_44">
		<path id="mf2f81012c6-13" class="st4" d="M308.6,116.8L308.6,116.8"/>
	</g>
</g>
<g id="xtick_14">
	<g id="line2d_45">
		<path class="st3" d="M328.3,116.8V41.5"/>
	</g>
	<g id="line2d_46">
		<path id="mf2f81012c6-14" class="st4" d="M328.3,116.8L328.3,116.8"/>
	</g>
</g>
<g id="xtick_15">
	<g id="line2d_47">
		<path class="st3" d="M348.1,116.8V41.5"/>
	</g>
	<g id="line2d_48">
		<path id="mf2f81012c6-15" class="st4" d="M348.1,116.8L348.1,116.8"/>
	</g>
</g>
<g id="ytick_7">
	<g id="line2d_49">
		<path class="st3" d="M261.3,104.2H356"/>
	</g>
	<g id="line2d_50">
		<path id="mf15f803dce-4" class="st4" d="M261.3,104.2L261.3,104.2"/>
	</g>
</g>
<g id="ytick_8">
	<g id="line2d_51">
		<path class="st3" d="M261.3,79.1H356"/>
	</g>
	<g id="line2d_52">
		<path id="mf15f803dce-5" class="st4" d="M261.3,79.1L261.3,79.1"/>
	</g>
</g>
<g id="ytick_9">
	<g id="line2d_53">
		<path class="st3" d="M261.3,54H356"/>
	</g>
	<g id="line2d_54">
		<path id="mf15f803dce-6" class="st4" d="M261.3,54L261.3,54"/>
	</g>
</g>
<path class="st2" d="M261.3,116.8V41.5"/>
<path class="st2" d="M356,116.8V41.5"/>
<path class="st2" d="M261.3,116.8H356"/>
<path class="st2" d="M261.3,41.5H356"/>
<path class="st5" d="M307,104.2L307,104.2"/>
<path class="st5" d="M307.8,79.1h-1.6"/>
<path class="st5" d="M299.4,54h6.1"/>
<path id="Ca_0_c5221a016d" class="st6" d="M307,108.1c1,0,2-0.4,2.7-1.1c0.7-0.7,1.1-1.7,1.1-2.7s-0.4-2-1.1-2.7
	c-0.7-0.7-1.7-1.1-2.7-1.1s-2,0.4-2.7,1.1c-0.7,0.7-1.1,1.7-1.1,2.7s0.4,2,1.1,2.7C305,107.7,306,108.1,307,108.1z"/>
<path id="Ca_0_c5221a016d-2" class="st6" d="M307.8,83c1,0,2-0.4,2.7-1.1c0.7-0.7,1.1-1.7,1.1-2.7s-0.4-2-1.1-2.7
	c-0.7-0.7-1.7-1.1-2.7-1.1s-2,0.4-2.7,1.1c-0.7,0.7-1.1,1.7-1.1,2.7s0.4,2,1.1,2.7C305.8,82.6,306.8,83,307.8,83z"/>
<path id="Ca_0_c5221a016d-3" class="st6" d="M299.4,57.9c1,0,2-0.4,2.7-1.1c0.7-0.7,1.1-1.7,1.1-2.7s-0.4-2-1.1-2.7
	c-0.7-0.7-1.7-1.1-2.7-1.1s-2,0.4-2.7,1.1c-0.7,0.7-1.1,1.7-1.1,2.7s0.4,2,1.1,2.7C297.3,57.5,298.3,57.9,299.4,57.9z"/>
<path id="Cb_0_039f39b433" class="st7" d="M307,108.1c1,0,2-0.4,2.7-1.1c0.7-0.7,1.1-1.7,1.1-2.7s-0.4-2-1.1-2.7
	c-0.7-0.7-1.7-1.1-2.7-1.1s-2,0.4-2.7,1.1c-0.7,0.7-1.1,1.7-1.1,2.7s0.4,2,1.1,2.7C305,107.7,306,108.1,307,108.1z"/>
<path id="Cb_0_039f39b433-2" class="st7" d="M306.2,83c1,0,2-0.4,2.7-1.1c0.7-0.7,1.1-1.7,1.1-2.7s-0.4-2-1.1-2.7
	c-0.7-0.7-1.7-1.1-2.7-1.1s-2,0.4-2.7,1.1c-0.7,0.7-1.1,1.7-1.1,2.7s0.4,2,1.1,2.7C304.2,82.6,305.2,83,306.2,83z"/>
<path id="Cb_0_039f39b433-3" class="st7" d="M305.5,57.9c1,0,2-0.4,2.7-1.1c0.7-0.7,1.1-1.7,1.1-2.7s-0.4-2-1.1-2.7
	c-0.7-0.7-1.7-1.1-2.7-1.1s-2,0.4-2.7,1.1c-0.7,0.7-1.1,1.7-1.1,2.7s0.4,2,1.1,2.7C303.5,57.5,304.4,57.9,305.5,57.9z"/>
<g id="xtick_16">
	<g id="line2d_58">
		<path class="st3" d="M368.6,116.8V41.5"/>
	</g>
	<g id="line2d_59">
		<path id="mf2f81012c6-16" class="st4" d="M368.6,116.8L368.6,116.8"/>
	</g>
</g>
<g id="xtick_17">
	<g id="line2d_60">
		<path class="st3" d="M387.5,116.8V41.5"/>
	</g>
	<g id="line2d_61">
		<path id="mf2f81012c6-17" class="st4" d="M387.5,116.8L387.5,116.8"/>
	</g>
</g>
<g id="xtick_18">
	<g id="line2d_62">
		<path class="st3" d="M408,116.8V41.5"/>
	</g>
	<g id="line2d_63">
		<path id="mf2f81012c6-18" class="st4" d="M408,116.8L408,116.8"/>
	</g>
</g>
<g id="xtick_19">
	<g id="line2d_64">
		<path class="st3" d="M428.6,116.8V41.5"/>
	</g>
	<g id="line2d_65">
		<path id="mf2f81012c6-19" class="st4" d="M428.6,116.8L428.6,116.8"/>
	</g>
</g>
<g id="xtick_20">
	<g id="line2d_66">
		<path class="st3" d="M447.5,116.8V41.5"/>
	</g>
	<g id="line2d_67">
		<path id="mf2f81012c6-20" class="st4" d="M447.5,116.8L447.5,116.8"/>
	</g>
</g>
<g id="ytick_10">
	<g id="line2d_68">
		<path class="st3" d="M360.7,104.2h94.7"/>
	</g>
	<g id="line2d_69">
		<path id="mf15f803dce-7" class="st4" d="M360.7,104.2L360.7,104.2"/>
	</g>
</g>
<g id="ytick_11">
	<g id="line2d_70">
		<path class="st3" d="M360.7,79.1h94.7"/>
	</g>
	<g id="line2d_71">
		<path id="mf15f803dce-8" class="st4" d="M360.7,79.1L360.7,79.1"/>
	</g>
</g>
<g id="ytick_12">
	<g id="line2d_72">
		<path class="st3" d="M360.7,54h94.7"/>
	</g>
	<g id="line2d_73">
		<path id="mf15f803dce-9" class="st4" d="M360.7,54L360.7,54"/>
	</g>
</g>
<path class="st2" d="M360.7,116.8V41.5"/>
<path class="st2" d="M455.4,116.8V41.5"/>
<path class="st2" d="M360.7,116.8h94.7"/>
<path class="st2" d="M360.7,41.5h94.7"/>
<path class="st5" d="M426.7,104.2h3.7"/>
<path class="st5" d="M395.5,79.1h3.2"/>
<path class="st5" d="M410,54h-26.3"/>
<path id="Ce_0_16dfaf250a" class="st6" d="M426.7,108.1c1,0,2-0.4,2.7-1.1c0.7-0.7,1.1-1.7,1.1-2.7s-0.4-2-1.1-2.7
	c-0.7-0.7-1.7-1.1-2.7-1.1s-2,0.4-2.7,1.1c-0.7,0.7-1.1,1.7-1.1,2.7s0.4,2,1.1,2.7C424.7,107.7,425.7,108.1,426.7,108.1z"/>
<path id="Ce_0_16dfaf250a-2" class="st6" d="M395.5,83c1,0,2-0.4,2.7-1.1c0.7-0.7,1.1-1.7,1.1-2.7s-0.4-2-1.1-2.7
	c-0.7-0.7-1.7-1.1-2.7-1.1s-2,0.4-2.7,1.1c-0.7,0.7-1.1,1.7-1.1,2.7s0.4,2,1.1,2.7C393.5,82.6,394.5,83,395.5,83z"/>
<path id="Ce_0_16dfaf250a-3" class="st6" d="M410,57.9c1,0,2-0.4,2.7-1.1c0.7-0.7,1.1-1.7,1.1-2.7s-0.4-2-1.1-2.7
	c-0.7-0.7-1.7-1.1-2.7-1.1s-2,0.4-2.7,1.1c-0.7,0.7-1.1,1.7-1.1,2.7s0.4,2,1.1,2.7C408,57.5,409,57.9,410,57.9z"/>
<path id="Cf_0_a1d5d61672" class="st7" d="M430.4,108.1c1,0,2-0.4,2.7-1.1c0.7-0.7,1.1-1.7,1.1-2.7s-0.4-2-1.1-2.7
	c-0.7-0.7-1.7-1.1-2.7-1.1s-2,0.4-2.7,1.1c-0.7,0.7-1.1,1.7-1.1,2.7s0.4,2,1.1,2.7C428.4,107.7,429.4,108.1,430.4,108.1z"/>
<path id="Cf_0_a1d5d61672-2" class="st7" d="M398.7,83c1,0,2-0.4,2.7-1.1c0.7-0.7,1.1-1.7,1.1-2.7s-0.4-2-1.1-2.7
	c-0.7-0.7-1.7-1.1-2.7-1.1s-2,0.4-2.7,1.1c-0.7,0.7-1.1,1.7-1.1,2.7s0.4,2,1.1,2.7C396.7,82.6,397.7,83,398.7,83z"/>
<path id="Cf_0_a1d5d61672-3" class="st7" d="M383.7,57.9c1,0,2-0.4,2.7-1.1c0.7-0.7,1.1-1.7,1.1-2.7s-0.4-2-1.1-2.7
	c-0.7-0.7-1.7-1.1-2.7-1.1s-2,0.4-2.7,1.1c-0.7,0.7-1.1,1.7-1.1,2.7s0.4,2,1.1,2.7C381.7,57.5,382.7,57.9,383.7,57.9z"/>
<g id="xtick_21">
	<g id="line2d_77">
		<path class="st3" d="M468,116.8V41.5"/>
	</g>
	<g id="line2d_78">
		<path id="mf2f81012c6-21" class="st4" d="M468,116.8L468,116.8"/>
	</g>
</g>
<g id="xtick_22">
	<g id="line2d_79">
		<path class="st3" d="M487,116.8V41.5"/>
	</g>
	<g id="line2d_80">
		<path id="mf2f81012c6-22" class="st4" d="M487,116.8L487,116.8"/>
	</g>
</g>
<g id="xtick_23">
	<g id="line2d_81">
		<path class="st3" d="M507.5,116.8V41.5"/>
	</g>
	<g id="line2d_82">
		<path id="mf2f81012c6-23" class="st4" d="M507.5,116.8L507.5,116.8"/>
	</g>
</g>
<g id="xtick_24">
	<g id="line2d_83">
		<path class="st3" d="M526.4,116.8V41.5"/>
	</g>
	<g id="line2d_84">
		<path id="mf2f81012c6-24" class="st4" d="M526.4,116.8L526.4,116.8"/>
	</g>
</g>
<g id="xtick_25">
	<g id="line2d_85">
		<path class="st3" d="M547,116.8V41.5"/>
	</g>
	<g id="line2d_86">
		<path id="mf2f81012c6-25" class="st4" d="M547,116.8L547,116.8"/>
	</g>
</g>
<g id="ytick_13">
	<g id="line2d_87">
		<path class="st3" d="M460.1,104.2h94.7"/>
	</g>
	<g id="line2d_88">
		<path id="mf15f803dce-10" class="st4" d="M460.1,104.2L460.1,104.2"/>
	</g>
</g>
<g id="ytick_14">
	<g id="line2d_89">
		<path class="st3" d="M460.1,79.1h94.7"/>
	</g>
	<g id="line2d_90">
		<path id="mf15f803dce-11" class="st4" d="M460.1,79.1L460.1,79.1"/>
	</g>
</g>
<g id="ytick_15">
	<g id="line2d_91">
		<path class="st3" d="M460.1,54h94.7"/>
	</g>
	<g id="line2d_92">
		<path id="mf15f803dce-12" class="st4" d="M460.1,54L460.1,54"/>
	</g>
</g>
<path class="st2" d="M460.1,116.8V41.5"/>
<path class="st2" d="M554.8,116.8V41.5"/>
<path class="st2" d="M460.1,116.8h94.7"/>
<path class="st2" d="M460.1,41.5h94.7"/>
<path class="st5" d="M496,104.2L496,104.2"/>
<path class="st5" d="M488.4,79.1h0.4"/>
<path class="st5" d="M490.4,54H489"/>
<path id="C12_0_392613dfbc" class="st6" d="M496,108.1c1,0,2-0.4,2.7-1.1c0.7-0.7,1.1-1.7,1.1-2.7s-0.4-2-1.1-2.7
	c-0.7-0.7-1.7-1.1-2.7-1.1s-2,0.4-2.7,1.1c-0.7,0.7-1.1,1.7-1.1,2.7s0.4,2,1.1,2.7C494,107.7,495,108.1,496,108.1z"/>
<path id="C12_0_392613dfbc-2" class="st6" d="M488.4,83c1,0,2-0.4,2.7-1.1c0.7-0.7,1.1-1.7,1.1-2.7s-0.4-2-1.1-2.7
	c-0.7-0.7-1.7-1.1-2.7-1.1s-2,0.4-2.7,1.1c-0.7,0.7-1.1,1.7-1.1,2.7s0.4,2,1.1,2.7C486.4,82.6,487.3,83,488.4,83z"/>
<path id="C12_0_392613dfbc-3" class="st6" d="M490.4,57.9c1,0,2-0.4,2.7-1.1c0.7-0.7,1.1-1.7,1.1-2.7s-0.4-2-1.1-2.7
	c-0.7-0.7-1.7-1.1-2.7-1.1s-2,0.4-2.7,1.1c-0.7,0.7-1.1,1.7-1.1,2.7s0.4,2,1.1,2.7C488.4,57.5,489.4,57.9,490.4,57.9z"/>
<path id="C13_0_30d795888b" class="st7" d="M496,108.1c1,0,2-0.4,2.7-1.1c0.7-0.7,1.1-1.7,1.1-2.7s-0.4-2-1.1-2.7
	c-0.7-0.7-1.7-1.1-2.7-1.1s-2,0.4-2.7,1.1c-0.7,0.7-1.1,1.7-1.1,2.7s0.4,2,1.1,2.7C494,107.7,494.9,108.1,496,108.1z"/>
<path id="C13_0_30d795888b-2" class="st7" d="M488.7,83c1,0,2-0.4,2.7-1.1c0.7-0.7,1.1-1.7,1.1-2.7s-0.4-2-1.1-2.7
	c-0.7-0.7-1.7-1.1-2.7-1.1s-2,0.4-2.7,1.1c-0.7,0.7-1.1,1.7-1.1,2.7s0.4,2,1.1,2.7C486.7,82.6,487.7,83,488.7,83z"/>
<path id="C13_0_30d795888b-3" class="st7" d="M489,57.9c1,0,2-0.4,2.7-1.1c0.7-0.7,1.1-1.7,1.1-2.7s-0.4-2-1.1-2.7
	c-0.7-0.7-1.7-1.1-2.7-1.1s-2,0.4-2.7,1.1c-0.7,0.7-1.1,1.7-1.1,2.7s0.4,2,1.1,2.7C487,57.5,488,57.9,489,57.9z"/>
<g id="xtick_26">
	<g id="line2d_96">
		<path class="st3" d="M70.3,195.8v-75.2"/>
	</g>
	<g id="line2d_97">
		<path id="mf2f81012c6-26" class="st4" d="M70.3,195.8L70.3,195.8"/>
	</g>
</g>
<g id="xtick_27">
	<g id="line2d_98">
		<path class="st3" d="M90,195.8v-75.2"/>
	</g>
	<g id="line2d_99">
		<path id="mf2f81012c6-27" class="st4" d="M90,195.8L90,195.8"/>
	</g>
</g>
<g id="xtick_28">
	<g id="line2d_100">
		<path class="st3" d="M109.7,195.8v-75.2"/>
	</g>
	<g id="line2d_101">
		<path id="mf2f81012c6-28" class="st4" d="M109.7,195.8L109.7,195.8"/>
	</g>
</g>
<g id="xtick_29">
	<g id="line2d_102">
		<path class="st3" d="M129.5,195.8v-75.2"/>
	</g>
	<g id="line2d_103">
		<path id="mf2f81012c6-29" class="st4" d="M129.5,195.8L129.5,195.8"/>
	</g>
</g>
<g id="xtick_30">
	<g id="line2d_104">
		<path class="st3" d="M149.2,195.8v-75.2"/>
	</g>
	<g id="line2d_105">
		<path id="mf2f81012c6-30" class="st4" d="M149.2,195.8L149.2,195.8"/>
	</g>
</g>
<path class="st3" d="M62.4,183.2h94.7"/>
<path id="m8214ff4b51-4" class="st4" d="M62.4,183.2h-3.5"/>
<path class="st3" d="M62.4,158.1h94.7"/>
<path id="m8214ff4b51-5" class="st4" d="M62.4,158.1h-3.5"/>
<path class="st3" d="M62.4,133.1h94.7"/>
<path id="m8214ff4b51-6" class="st4" d="M62.4,133.1h-3.5"/>
<path class="st2" d="M62.4,195.8v-75.2"/>
<path class="st2" d="M157.1,195.8v-75.2"/>
<path class="st2" d="M62.4,195.8h94.7"/>
<path class="st2" d="M62.4,120.5h94.7"/>
<path class="st5" d="M126.2,183.2h7.7"/>
<path class="st5" d="M123.7,158.1h0.3"/>
<path class="st5" d="M120.7,133.1h3.4"/>
<path id="C16_0_30850ede0a" class="st6" d="M126.2,187.1c1,0,2-0.4,2.7-1.1c0.7-0.7,1.1-1.7,1.1-2.7s-0.4-2-1.1-2.7
	c-0.7-0.7-1.7-1.1-2.7-1.1s-2,0.4-2.7,1.1c-0.7,0.7-1.1,1.7-1.1,2.7s0.4,2,1.1,2.7C124.2,186.7,125.2,187.1,126.2,187.1z"/>
<path id="C16_0_30850ede0a-2" class="st6" d="M123.7,162c1,0,2-0.4,2.7-1.1c0.7-0.7,1.1-1.7,1.1-2.7s-0.4-2-1.1-2.7
	c-0.7-0.7-1.7-1.1-2.7-1.1s-2,0.4-2.7,1.1c-0.7,0.7-1.1,1.7-1.1,2.7s0.4,2,1.1,2.7C121.6,161.6,122.6,162,123.7,162z"/>
<path id="C16_0_30850ede0a-3" class="st6" d="M120.7,136.9c1,0,2-0.4,2.7-1.1c0.7-0.7,1.1-1.7,1.1-2.7s-0.4-2-1.1-2.7
	c-0.7-0.7-1.7-1.1-2.7-1.1s-2,0.4-2.7,1.1c-0.7,0.7-1.1,1.7-1.1,2.7s0.4,2,1.1,2.7C118.7,136.5,119.7,136.9,120.7,136.9z"/>
<path id="C17_0_0d0a2fef5c" class="st7" d="M133.9,187.1c1,0,2-0.4,2.7-1.1c0.7-0.7,1.1-1.7,1.1-2.7s-0.4-2-1.1-2.7
	c-0.7-0.7-1.7-1.1-2.7-1.1s-2,0.4-2.7,1.1c-0.7,0.7-1.1,1.7-1.1,2.7s0.4,2,1.1,2.7C131.9,186.7,132.9,187.1,133.9,187.1z"/>
<path id="C17_0_0d0a2fef5c-2" class="st7" d="M123.9,162c1,0,2-0.4,2.7-1.1c0.7-0.7,1.1-1.7,1.1-2.7s-0.4-2-1.1-2.7
	c-0.7-0.7-1.7-1.1-2.7-1.1s-2,0.4-2.7,1.1c-0.7,0.7-1.1,1.7-1.1,2.7s0.4,2,1.1,2.7C121.9,161.6,122.9,162,123.9,162z"/>
<path id="C17_0_0d0a2fef5c-3" class="st7" d="M124.1,136.9c1,0,2-0.4,2.7-1.1c0.7-0.7,1.1-1.7,1.1-2.7s-0.4-2-1.1-2.7
	c-0.7-0.7-1.7-1.1-2.7-1.1s-2,0.4-2.7,1.1c-0.7,0.7-1.1,1.7-1.1,2.7s0.4,2,1.1,2.7C122.1,136.5,123.1,136.9,124.1,136.9z"/>
<g id="xtick_31">
	<g id="line2d_115">
		<path class="st3" d="M169.7,195.8v-75.2"/>
	</g>
	<g id="line2d_116">
		<path id="mf2f81012c6-31" class="st4" d="M169.7,195.8L169.7,195.8"/>
	</g>
</g>
<g id="xtick_32">
	<g id="line2d_117">
		<path class="st3" d="M189.4,195.8v-75.2"/>
	</g>
	<g id="line2d_118">
		<path id="mf2f81012c6-32" class="st4" d="M189.4,195.8L189.4,195.8"/>
	</g>
</g>
<g id="xtick_33">
	<g id="line2d_119">
		<path class="st3" d="M209.2,195.8v-75.2"/>
	</g>
	<g id="line2d_120">
		<path id="mf2f81012c6-33" class="st4" d="M209.2,195.8L209.2,195.8"/>
	</g>
</g>
<g id="xtick_34">
	<g id="line2d_121">
		<path class="st3" d="M228.9,195.8v-75.2"/>
	</g>
	<g id="line2d_122">
		<path id="mf2f81012c6-34" class="st4" d="M228.9,195.8L228.9,195.8"/>
	</g>
</g>
<g id="xtick_35">
	<g id="line2d_123">
		<path class="st3" d="M248.6,195.8v-75.2"/>
	</g>
	<g id="line2d_124">
		<path id="mf2f81012c6-35" class="st4" d="M248.6,195.8L248.6,195.8"/>
	</g>
</g>
<g id="ytick_19">
	<g id="line2d_125">
		<path class="st3" d="M161.8,183.2h94.7"/>
	</g>
	<g id="line2d_126">
		<path id="mf15f803dce-13" class="st4" d="M161.8,183.2L161.8,183.2"/>
	</g>
</g>
<g id="ytick_20">
	<g id="line2d_127">
		<path class="st3" d="M161.8,158.1h94.7"/>
	</g>
	<g id="line2d_128">
		<path id="mf15f803dce-14" class="st4" d="M161.8,158.1L161.8,158.1"/>
	</g>
</g>
<g id="ytick_21">
	<g id="line2d_129">
		<path class="st3" d="M161.8,133.1h94.7"/>
	</g>
	<g id="line2d_130">
		<path id="mf15f803dce-15" class="st4" d="M161.8,133.1L161.8,133.1"/>
	</g>
</g>
<path class="st2" d="M161.8,195.8v-75.2"/>
<path class="st2" d="M256.5,195.8v-75.2"/>
<path class="st2" d="M161.8,195.8h94.7"/>
<path class="st2" d="M161.8,120.5h94.7"/>
<path class="st5" d="M209.2,183.2L209.2,183.2"/>
<path class="st5" d="M209.2,158.1L209.2,158.1"/>
<path class="st5" d="M209.2,133.1L209.2,133.1"/>
<path id="C1a_0_2f854b715c" class="st6" d="M209.2,187.1c1,0,2-0.4,2.7-1.1c0.7-0.7,1.1-1.7,1.1-2.7s-0.4-2-1.1-2.7
	c-0.7-0.7-1.7-1.1-2.7-1.1s-2,0.4-2.7,1.1c-0.7,0.7-1.1,1.7-1.1,2.7s0.4,2,1.1,2.7C207.2,186.7,208.1,187.1,209.2,187.1z"/>
<path id="C1a_0_2f854b715c-2" class="st6" d="M209.2,162c1,0,2-0.4,2.7-1.1c0.7-0.7,1.1-1.7,1.1-2.7s-0.4-2-1.1-2.7
	c-0.7-0.7-1.7-1.1-2.7-1.1s-2,0.4-2.7,1.1c-0.7,0.7-1.1,1.7-1.1,2.7s0.4,2,1.1,2.7C207.2,161.6,208.1,162,209.2,162z"/>
<path id="C1a_0_2f854b715c-3" class="st6" d="M209.2,136.9c1,0,2-0.4,2.7-1.1c0.7-0.7,1.1-1.7,1.1-2.7s-0.4-2-1.1-2.7
	c-0.7-0.7-1.7-1.1-2.7-1.1s-2,0.4-2.7,1.1c-0.7,0.7-1.1,1.7-1.1,2.7s0.4,2,1.1,2.7C207.2,136.5,208.1,136.9,209.2,136.9z"/>
<path id="C1b_0_a63e4abddc" class="st7" d="M209.2,187.1c1,0,2-0.4,2.7-1.1c0.7-0.7,1.1-1.7,1.1-2.7s-0.4-2-1.1-2.7
	c-0.7-0.7-1.7-1.1-2.7-1.1s-2,0.4-2.7,1.1c-0.7,0.7-1.1,1.7-1.1,2.7s0.4,2,1.1,2.7C207.2,186.7,208.1,187.1,209.2,187.1z"/>
<path id="C1b_0_a63e4abddc-2" class="st7" d="M209.2,162c1,0,2-0.4,2.7-1.1c0.7-0.7,1.1-1.7,1.1-2.7s-0.4-2-1.1-2.7
	c-0.7-0.7-1.7-1.1-2.7-1.1s-2,0.4-2.7,1.1c-0.7,0.7-1.1,1.7-1.1,2.7s0.4,2,1.1,2.7C207.2,161.6,208.1,162,209.2,162z"/>
<path id="C1b_0_a63e4abddc-3" class="st7" d="M209.2,136.9c1,0,2-0.4,2.7-1.1c0.7-0.7,1.1-1.7,1.1-2.7s-0.4-2-1.1-2.7
	c-0.7-0.7-1.7-1.1-2.7-1.1s-2,0.4-2.7,1.1c-0.7,0.7-1.1,1.7-1.1,2.7s0.4,2,1.1,2.7C207.2,136.5,208.1,136.9,209.2,136.9z"/>
<g id="xtick_36">
	<g id="line2d_134">
		<path class="st3" d="M269.1,195.8v-75.2"/>
	</g>
	<g id="line2d_135">
		<path id="mf2f81012c6-36" class="st4" d="M269.1,195.8L269.1,195.8"/>
	</g>
</g>
<g id="xtick_37">
	<g id="line2d_136">
		<path class="st3" d="M288.9,195.8v-75.2"/>
	</g>
	<g id="line2d_137">
		<path id="mf2f81012c6-37" class="st4" d="M288.9,195.8L288.9,195.8"/>
	</g>
</g>
<g id="xtick_38">
	<g id="line2d_138">
		<path class="st3" d="M308.6,195.8v-75.2"/>
	</g>
	<g id="line2d_139">
		<path id="mf2f81012c6-38" class="st4" d="M308.6,195.8L308.6,195.8"/>
	</g>
</g>
<g id="xtick_39">
	<g id="line2d_140">
		<path class="st3" d="M328.3,195.8v-75.2"/>
	</g>
	<g id="line2d_141">
		<path id="mf2f81012c6-39" class="st4" d="M328.3,195.8L328.3,195.8"/>
	</g>
</g>
<g id="xtick_40">
	<g id="line2d_142">
		<path class="st3" d="M348.1,195.8v-75.2"/>
	</g>
	<g id="line2d_143">
		<path id="mf2f81012c6-40" class="st4" d="M348.1,195.8L348.1,195.8"/>
	</g>
</g>
<g id="ytick_22">
	<g id="line2d_144">
		<path class="st3" d="M261.3,183.2H356"/>
	</g>
	<g id="line2d_145">
		<path id="mf15f803dce-16" class="st4" d="M261.3,183.2L261.3,183.2"/>
	</g>
</g>
<g id="ytick_23">
	<g id="line2d_146">
		<path class="st3" d="M261.3,158.1H356"/>
	</g>
	<g id="line2d_147">
		<path id="mf15f803dce-17" class="st4" d="M261.3,158.1L261.3,158.1"/>
	</g>
</g>
<g id="ytick_24">
	<g id="line2d_148">
		<path class="st3" d="M261.3,133.1H356"/>
	</g>
	<g id="line2d_149">
		<path id="mf15f803dce-18" class="st4" d="M261.3,133.1L261.3,133.1"/>
	</g>
</g>
<path class="st2" d="M261.3,195.8v-75.2"/>
<path class="st2" d="M356,195.8v-75.2"/>
<path class="st2" d="M261.3,195.8H356"/>
<path class="st2" d="M261.3,120.5H356"/>
<path class="st5" d="M306.3,183.2L306.3,183.2"/>
<path class="st5" d="M307.5,158.1h-2.1"/>
<path class="st5" d="M299.5,133.1h4.7"/>
<path id="C1e_0_21d047bef6" class="st6" d="M306.3,187.1c1,0,2-0.4,2.7-1.1c0.7-0.7,1.1-1.7,1.1-2.7s-0.4-2-1.1-2.7
	c-0.7-0.7-1.7-1.1-2.7-1.1s-2,0.4-2.7,1.1c-0.7,0.7-1.1,1.7-1.1,2.7s0.4,2,1.1,2.7C304.3,186.7,305.3,187.1,306.3,187.1z"/>
<path id="C1e_0_21d047bef6-2" class="st6" d="M307.5,162c1,0,2-0.4,2.7-1.1c0.7-0.7,1.1-1.7,1.1-2.7s-0.4-2-1.1-2.7
	c-0.7-0.7-1.7-1.1-2.7-1.1s-2,0.4-2.7,1.1c-0.7,0.7-1.1,1.7-1.1,2.7s0.4,2,1.1,2.7C305.4,161.6,306.4,162,307.5,162z"/>
<path id="C1e_0_21d047bef6-3" class="st6" d="M299.5,136.9c1,0,2-0.4,2.7-1.1c0.7-0.7,1.1-1.7,1.1-2.7s-0.4-2-1.1-2.7
	c-0.7-0.7-1.7-1.1-2.7-1.1s-2,0.4-2.7,1.1c-0.7,0.7-1.1,1.7-1.1,2.7s0.4,2,1.1,2.7C297.5,136.5,298.5,136.9,299.5,136.9z"/>
<path id="C1f_0_cc367a1db0" class="st7" d="M306.3,187.1c1,0,2-0.4,2.7-1.1c0.7-0.7,1.1-1.7,1.1-2.7s-0.4-2-1.1-2.7
	c-0.7-0.7-1.7-1.1-2.7-1.1s-2,0.4-2.7,1.1c-0.7,0.7-1.1,1.7-1.1,2.7s0.4,2,1.1,2.7C304.3,186.7,305.3,187.1,306.3,187.1z"/>
<path id="C1f_0_cc367a1db0-2" class="st7" d="M305.4,162c1,0,2-0.4,2.7-1.1c0.7-0.7,1.1-1.7,1.1-2.7s-0.4-2-1.1-2.7
	c-0.7-0.7-1.7-1.1-2.7-1.1s-2,0.4-2.7,1.1c-0.7,0.7-1.1,1.7-1.1,2.7s0.4,2,1.1,2.7C303.4,161.6,304.4,162,305.4,162z"/>
<path id="C1f_0_cc367a1db0-3" class="st7" d="M304.2,136.9c1,0,2-0.4,2.7-1.1c0.7-0.7,1.1-1.7,1.1-2.7s-0.4-2-1.1-2.7
	c-0.7-0.7-1.7-1.1-2.7-1.1s-2,0.4-2.7,1.1c-0.7,0.7-1.1,1.7-1.1,2.7s0.4,2,1.1,2.7C302.2,136.5,303.2,136.9,304.2,136.9z"/>
<g id="xtick_41">
	<g id="line2d_153">
		<path class="st3" d="M368.6,195.8v-75.2"/>
	</g>
	<g id="line2d_154">
		<path id="mf2f81012c6-41" class="st4" d="M368.6,195.8L368.6,195.8"/>
	</g>
</g>
<g id="xtick_42">
	<g id="line2d_155">
		<path class="st3" d="M387.5,195.8v-75.2"/>
	</g>
	<g id="line2d_156">
		<path id="mf2f81012c6-42" class="st4" d="M387.5,195.8L387.5,195.8"/>
	</g>
</g>
<g id="xtick_43">
	<g id="line2d_157">
		<path class="st3" d="M408,195.8v-75.2"/>
	</g>
	<g id="line2d_158">
		<path id="mf2f81012c6-43" class="st4" d="M408,195.8L408,195.8"/>
	</g>
</g>
<g id="xtick_44">
	<g id="line2d_159">
		<path class="st3" d="M428.6,195.8v-75.2"/>
	</g>
	<g id="line2d_160">
		<path id="mf2f81012c6-44" class="st4" d="M428.6,195.8L428.6,195.8"/>
	</g>
</g>
<g id="xtick_45">
	<g id="line2d_161">
		<path class="st3" d="M447.5,195.8v-75.2"/>
	</g>
	<g id="line2d_162">
		<path id="mf2f81012c6-45" class="st4" d="M447.5,195.8L447.5,195.8"/>
	</g>
</g>
<g id="ytick_25">
	<g id="line2d_163">
		<path class="st3" d="M360.7,183.2h94.7"/>
	</g>
	<g id="line2d_164">
		<path id="mf15f803dce-19" class="st4" d="M360.7,183.2L360.7,183.2"/>
	</g>
</g>
<g id="ytick_26">
	<g id="line2d_165">
		<path class="st3" d="M360.7,158.1h94.7"/>
	</g>
	<g id="line2d_166">
		<path id="mf15f803dce-20" class="st4" d="M360.7,158.1L360.7,158.1"/>
	</g>
</g>
<g id="ytick_27">
	<g id="line2d_167">
		<path class="st3" d="M360.7,133.1h94.7"/>
	</g>
	<g id="line2d_168">
		<path id="mf15f803dce-21" class="st4" d="M360.7,133.1L360.7,133.1"/>
	</g>
</g>
<path class="st2" d="M360.7,195.8v-75.2"/>
<path class="st2" d="M455.4,195.8v-75.2"/>
<path class="st2" d="M360.7,195.8h94.7"/>
<path class="st2" d="M360.7,120.5h94.7"/>
<path class="st5" d="M438.4,183.2h1.8"/>
<path class="st5" d="M421.4,158.1h2.6"/>
<path class="st5" d="M432.7,133.1h-15.5"/>
<path id="C22_0_7558410ee6" class="st6" d="M438.4,187.1c1,0,2-0.4,2.7-1.1c0.7-0.7,1.1-1.7,1.1-2.7s-0.4-2-1.1-2.7
	c-0.7-0.7-1.7-1.1-2.7-1.1s-2,0.4-2.7,1.1c-0.7,0.7-1.1,1.7-1.1,2.7s0.4,2,1.1,2.7C436.4,186.7,437.4,187.1,438.4,187.1z"/>
<path id="C22_0_7558410ee6-2" class="st6" d="M421.4,162c1,0,2-0.4,2.7-1.1c0.7-0.7,1.1-1.7,1.1-2.7s-0.4-2-1.1-2.7
	c-0.7-0.7-1.7-1.1-2.7-1.1s-2,0.4-2.7,1.1c-0.7,0.7-1.1,1.7-1.1,2.7s0.4,2,1.1,2.7C419.4,161.6,420.4,162,421.4,162z"/>
<path id="C22_0_7558410ee6-3" class="st6" d="M432.7,136.9c1,0,2-0.4,2.7-1.1c0.7-0.7,1.1-1.7,1.1-2.7s-0.4-2-1.1-2.7
	c-0.7-0.7-1.7-1.1-2.7-1.1s-2,0.4-2.7,1.1c-0.7,0.7-1.1,1.7-1.1,2.7s0.4,2,1.1,2.7C430.7,136.5,431.6,136.9,432.7,136.9z"/>
<path id="C23_0_2d35d37dc1" class="st7" d="M440.2,187.1c1,0,2-0.4,2.7-1.1c0.7-0.7,1.1-1.7,1.1-2.7s-0.4-2-1.1-2.7
	c-0.7-0.7-1.7-1.1-2.7-1.1s-2,0.4-2.7,1.1c-0.7,0.7-1.1,1.7-1.1,2.7s0.4,2,1.1,2.7C438.2,186.7,439.1,187.1,440.2,187.1z"/>
<path id="C23_0_2d35d37dc1-2" class="st7" d="M424,162c1,0,2-0.4,2.7-1.1c0.7-0.7,1.1-1.7,1.1-2.7s-0.4-2-1.1-2.7
	c-0.7-0.7-1.7-1.1-2.7-1.1s-2,0.4-2.7,1.1c-0.7,0.7-1.1,1.7-1.1,2.7s0.4,2,1.1,2.7C422,161.6,423,162,424,162z"/>
<path id="C23_0_2d35d37dc1-3" class="st7" d="M417.1,136.9c1,0,2-0.4,2.7-1.1c0.7-0.7,1.1-1.7,1.1-2.7s-0.4-2-1.1-2.7
	c-0.7-0.7-1.7-1.1-2.7-1.1s-2,0.4-2.7,1.1c-0.7,0.7-1.1,1.7-1.1,2.7s0.4,2,1.1,2.7C415.1,136.5,416.1,136.9,417.1,136.9z"/>
<g id="xtick_46">
	<g id="line2d_172">
		<path class="st3" d="M468,195.8v-75.2"/>
	</g>
	<g id="line2d_173">
		<path id="mf2f81012c6-46" class="st4" d="M468,195.8L468,195.8"/>
	</g>
</g>
<g id="xtick_47">
	<g id="line2d_174">
		<path class="st3" d="M487,195.8v-75.2"/>
	</g>
	<g id="line2d_175">
		<path id="mf2f81012c6-47" class="st4" d="M487,195.8L487,195.8"/>
	</g>
</g>
<g id="xtick_48">
	<g id="line2d_176">
		<path class="st3" d="M507.5,195.8v-75.2"/>
	</g>
	<g id="line2d_177">
		<path id="mf2f81012c6-48" class="st4" d="M507.5,195.8L507.5,195.8"/>
	</g>
</g>
<g id="xtick_49">
	<g id="line2d_178">
		<path class="st3" d="M526.4,195.8v-75.2"/>
	</g>
	<g id="line2d_179">
		<path id="mf2f81012c6-49" class="st4" d="M526.4,195.8L526.4,195.8"/>
	</g>
</g>
<g id="xtick_50">
	<g id="line2d_180">
		<path class="st3" d="M547,195.8v-75.2"/>
	</g>
	<g id="line2d_181">
		<path id="mf2f81012c6-50" class="st4" d="M547,195.8L547,195.8"/>
	</g>
</g>
<g id="ytick_28">
	<g id="line2d_182">
		<path class="st3" d="M460.1,183.2h94.7"/>
	</g>
	<g id="line2d_183">
		<path id="mf15f803dce-22" class="st4" d="M460.1,183.2L460.1,183.2"/>
	</g>
</g>
<g id="ytick_29">
	<g id="line2d_184">
		<path class="st3" d="M460.1,158.1h94.7"/>
	</g>
	<g id="line2d_185">
		<path id="mf15f803dce-23" class="st4" d="M460.1,158.1L460.1,158.1"/>
	</g>
</g>
<g id="ytick_30">
	<g id="line2d_186">
		<path class="st3" d="M460.1,133.1h94.7"/>
	</g>
	<g id="line2d_187">
		<path id="mf15f803dce-24" class="st4" d="M460.1,133.1L460.1,133.1"/>
	</g>
</g>
<path class="st2" d="M460.1,195.8v-75.2"/>
<path class="st2" d="M554.8,195.8v-75.2"/>
<path class="st2" d="M460.1,195.8h94.7"/>
<path class="st2" d="M460.1,120.5h94.7"/>
<path class="st5" d="M533.9,183.2L533.9,183.2"/>
<path class="st5" d="M521.6,158.1h-0.8"/>
<path class="st5" d="M521.4,133.1h1.9"/>
<path id="C26_0_1636d9b3d4" class="st6" d="M533.9,187.1c1,0,2-0.4,2.7-1.1c0.7-0.7,1.1-1.7,1.1-2.7s-0.4-2-1.1-2.7
	c-0.7-0.7-1.7-1.1-2.7-1.1s-2,0.4-2.7,1.1c-0.7,0.7-1.1,1.7-1.1,2.7s0.4,2,1.1,2.7C531.9,186.7,532.9,187.1,533.9,187.1z"/>
<path id="C26_0_1636d9b3d4-2" class="st6" d="M521.6,162c1,0,2-0.4,2.7-1.1c0.7-0.7,1.1-1.7,1.1-2.7s-0.4-2-1.1-2.7
	c-0.7-0.7-1.7-1.1-2.7-1.1s-2,0.4-2.7,1.1c-0.7,0.7-1.1,1.7-1.1,2.7s0.4,2,1.1,2.7C519.6,161.6,520.6,162,521.6,162z"/>
<path id="C26_0_1636d9b3d4-3" class="st6" d="M521.4,136.9c1,0,2-0.4,2.7-1.1c0.7-0.7,1.1-1.7,1.1-2.7s-0.4-2-1.1-2.7
	c-0.7-0.7-1.7-1.1-2.7-1.1s-2,0.4-2.7,1.1c-0.7,0.7-1.1,1.7-1.1,2.7s0.4,2,1.1,2.7C519.3,136.5,520.3,136.9,521.4,136.9z"/>
<path id="C27_0_77b0cf865c" class="st7" d="M533.8,187.1c1,0,2-0.4,2.7-1.1c0.7-0.7,1.1-1.7,1.1-2.7s-0.4-2-1.1-2.7
	c-0.7-0.7-1.7-1.1-2.7-1.1s-2,0.4-2.7,1.1c-0.7,0.7-1.1,1.7-1.1,2.7s0.4,2,1.1,2.7C531.8,186.7,532.8,187.1,533.8,187.1z"/>
<path id="C27_0_77b0cf865c-2" class="st7" d="M520.8,162c1,0,2-0.4,2.7-1.1c0.7-0.7,1.1-1.7,1.1-2.7s-0.4-2-1.1-2.7
	c-0.7-0.7-1.7-1.1-2.7-1.1s-2,0.4-2.7,1.1c-0.7,0.7-1.1,1.7-1.1,2.7s0.4,2,1.1,2.7C518.8,161.6,519.7,162,520.8,162z"/>
<path id="C27_0_77b0cf865c-3" class="st7" d="M523.3,136.9c1,0,2-0.4,2.7-1.1c0.7-0.7,1.1-1.7,1.1-2.7s-0.4-2-1.1-2.7
	c-0.7-0.7-1.7-1.1-2.7-1.1s-2,0.4-2.7,1.1c-0.7,0.7-1.1,1.7-1.1,2.7s0.4,2,1.1,2.7C521.3,136.5,522.3,136.9,523.3,136.9z"/>
<path class="st3" d="M70.3,274.8v-75.2"/>
<path id="mbe52e09add" class="st4" d="M70.3,274.8v3.5"/>
<path id="DejaVuSans-30" class="st8" d="M65.5,282.4c-0.3,0-0.5,0.1-0.7,0.5c-0.2,0.3-0.2,0.8-0.2,1.4s0.1,1,0.2,1.4
	c0.2,0.3,0.4,0.5,0.7,0.5s0.5-0.1,0.7-0.5c0.2-0.3,0.2-0.8,0.2-1.4s-0.1-1-0.2-1.4C66,282.5,65.8,282.4,65.5,282.4z M65.5,281.9
	c0.5,0,0.9,0.2,1.1,0.6c0.3,0.4,0.4,1,0.4,1.7s-0.1,1.3-0.4,1.7s-0.6,0.6-1.1,0.6s-0.9-0.2-1.1-0.6c-0.3-0.4-0.4-1-0.4-1.7
	s0.1-1.3,0.4-1.7S65,281.9,65.5,281.9z"/>
<path id="DejaVuSans-2e" class="st8" d="M68,285.6h0.6v0.7H68V285.6z"/>
<path id="DejaVuSans-33" class="st8" d="M71.7,284c0.3,0.1,0.5,0.2,0.7,0.4s0.2,0.4,0.2,0.7c0,0.4-0.2,0.8-0.4,1
	c-0.3,0.2-0.7,0.4-1.3,0.4c-0.2,0-0.4,0-0.6,0c-0.2,0-0.4-0.1-0.6-0.2v-0.6c0.2,0.1,0.3,0.2,0.5,0.2c0.2,0,0.4,0.1,0.6,0.1
	c0.4,0,0.7-0.1,0.8-0.2s0.3-0.4,0.3-0.6c0-0.3-0.1-0.5-0.3-0.6c-0.2-0.1-0.4-0.2-0.8-0.2h-0.5v-0.5H71c0.3,0,0.5-0.1,0.7-0.2
	s0.2-0.3,0.2-0.5s-0.1-0.4-0.2-0.5c-0.2-0.1-0.4-0.2-0.7-0.2c-0.2,0-0.3,0-0.5,0c-0.2,0-0.4,0.1-0.6,0.2v-0.5
	c0.2-0.1,0.4-0.1,0.6-0.1s0.4,0,0.6,0c0.4,0,0.8,0.1,1.1,0.3c0.3,0.2,0.4,0.5,0.4,0.8c0,0.2-0.1,0.5-0.2,0.6S72,283.9,71.7,284
	L71.7,284z"/>
<path id="DejaVuSans-30-2" class="st8" d="M75,282.4c-0.3,0-0.5,0.1-0.7,0.5c-0.2,0.3-0.2,0.8-0.2,1.4s0.1,1,0.2,1.4
	c0.2,0.3,0.4,0.5,0.7,0.5s0.5-0.1,0.7-0.5c0.2-0.3,0.2-0.8,0.2-1.4s-0.1-1-0.2-1.4C75.6,282.5,75.3,282.4,75,282.4z M75,281.9
	c0.5,0,0.9,0.2,1.1,0.6c0.3,0.4,0.4,1,0.4,1.7s-0.1,1.3-0.4,1.7s-0.6,0.6-1.1,0.6s-0.9-0.2-1.1-0.6c-0.3-0.4-0.4-1-0.4-1.7
	s0.1-1.3,0.4-1.7S74.5,281.9,75,281.9z"/>
<g id="line2d_193">
	<path class="st3" d="M90,274.8v-75.2"/>
</g>
<g id="line2d_194">
	<path id="mbe52e09add-2" class="st4" d="M90,274.5v2"/>
</g>
<path class="st3" d="M109.7,274.8v-75.2"/>
<path id="mbe52e09add-3" class="st4" d="M109.7,274.8v3.5"/>
<path id="DejaVuSans-30-3" class="st8" d="M104.9,282.4c-0.3,0-0.5,0.1-0.7,0.5c-0.2,0.3-0.2,0.8-0.2,1.4s0.1,1,0.2,1.4
	c0.2,0.3,0.4,0.5,0.7,0.5s0.5-0.1,0.7-0.5c0.2-0.3,0.2-0.8,0.2-1.4s-0.1-1-0.2-1.4C105.5,282.5,105.3,282.4,104.9,282.4z
	 M104.9,281.9c0.5,0,0.9,0.2,1.1,0.6c0.3,0.4,0.4,1,0.4,1.7s-0.1,1.3-0.4,1.7s-0.6,0.6-1.1,0.6s-0.9-0.2-1.1-0.6
	c-0.3-0.4-0.4-1-0.4-1.7s0.1-1.3,0.4-1.7S104.5,281.9,104.9,281.9z"/>
<path id="DejaVuSans-2e-2" class="st8" d="M107.5,285.6h0.6v0.7h-0.6V285.6z"/>
<path id="DejaVuSans-35" class="st8" d="M109.4,282h2.3v0.5H110v1.1c0.1,0,0.2,0,0.3-0.1c0.1,0,0.2,0,0.3,0c0.5,0,0.9,0.1,1.2,0.4
	s0.4,0.6,0.4,1.1s-0.2,0.8-0.4,1.1s-0.7,0.4-1.2,0.4c-0.2,0-0.4,0-0.6,0c-0.2,0-0.4-0.1-0.6-0.1v-0.6c0.2,0.1,0.4,0.2,0.5,0.2
	s0.4,0.1,0.6,0.1c0.3,0,0.6-0.1,0.8-0.3c0.2-0.2,0.3-0.4,0.3-0.7s-0.1-0.5-0.3-0.7c-0.2-0.2-0.5-0.3-0.8-0.3c-0.2,0-0.3,0-0.5,0
	c-0.2,0-0.3,0.1-0.5,0.2L109.4,282L109.4,282z"/>
<path id="DejaVuSans-30-4" class="st8" d="M114.5,282.4c-0.3,0-0.5,0.1-0.7,0.5c-0.2,0.3-0.2,0.8-0.2,1.4s0.1,1,0.2,1.4
	c0.2,0.3,0.4,0.5,0.7,0.5s0.5-0.1,0.7-0.5c0.2-0.3,0.2-0.8,0.2-1.4s-0.1-1-0.2-1.4C115,282.5,114.8,282.4,114.5,282.4z M114.5,281.9
	c0.5,0,0.9,0.2,1.1,0.6c0.3,0.4,0.4,1,0.4,1.7s-0.1,1.3-0.4,1.7s-0.6,0.6-1.1,0.6s-0.9-0.2-1.1-0.6c-0.3-0.4-0.4-1-0.4-1.7
	s0.1-1.3,0.4-1.7S114,281.9,114.5,281.9z"/>
<g id="line2d_197">
	<path class="st3" d="M129.5,274.8v-75.2"/>
</g>
<g id="line2d_198">
	<path id="mbe52e09add-4" class="st4" d="M129.5,274.5v2"/>
</g>
<path class="st3" d="M149.2,274.8v-75.2"/>
<path id="mbe52e09add-5" class="st4" d="M149.2,274.8v3.5"/>
<path id="DejaVuSans-30-5" class="st8" d="M144.4,282.4c-0.3,0-0.5,0.1-0.7,0.5c-0.1,0.3-0.2,0.8-0.2,1.4s0.1,1,0.2,1.4
	c0.1,0.3,0.4,0.5,0.7,0.5s0.5-0.1,0.7-0.5c0.1-0.3,0.2-0.8,0.2-1.4s-0.1-1-0.2-1.4C145,282.5,144.7,282.4,144.4,282.4z M144.4,281.9
	c0.5,0,0.9,0.2,1.1,0.6c0.3,0.4,0.4,1,0.4,1.7s-0.1,1.3-0.4,1.7s-0.6,0.6-1.1,0.6s-0.9-0.2-1.1-0.6c-0.3-0.4-0.4-1-0.4-1.7
	s0.1-1.3,0.4-1.7S143.9,281.9,144.4,281.9z"/>
<path id="DejaVuSans-2e-3" class="st8" d="M147,285.6h0.6v0.7H147V285.6z"/>
<path id="DejaVuSans-37" class="st8" d="M148.7,282h2.8v0.2l-1.6,4.1h-0.6l1.5-3.9h-2.1L148.7,282L148.7,282z"/>
<path id="DejaVuSans-30-6" class="st8" d="M154,282.4c-0.3,0-0.5,0.1-0.7,0.5c-0.1,0.3-0.2,0.8-0.2,1.4s0.1,1,0.2,1.4
	c0.1,0.3,0.4,0.5,0.7,0.5s0.5-0.1,0.7-0.5c0.1-0.3,0.2-0.8,0.2-1.4s-0.1-1-0.2-1.4C154.5,282.5,154.3,282.4,154,282.4z M154,281.9
	c0.5,0,0.9,0.2,1.1,0.6c0.3,0.4,0.4,1,0.4,1.7s-0.1,1.3-0.4,1.7s-0.6,0.6-1.1,0.6s-0.9-0.2-1.1-0.6c-0.3-0.4-0.4-1-0.4-1.7
	s0.1-1.3,0.4-1.7S153.5,281.9,154,281.9z"/>
<path class="st3" d="M62.4,262.2h94.7"/>
<path id="m8214ff4b51-7" class="st4" d="M62.4,262.2h-3.5"/>
<path class="st3" d="M62.4,237.2h94.7"/>
<path id="m8214ff4b51-8" class="st4" d="M62.4,237.2h-3.5"/>
<path class="st3" d="M62.4,212.1h94.7"/>
<path id="m8214ff4b51-9" class="st4" d="M62.4,212.1h-3.5"/>
<path class="st2" d="M62.4,274.8v-75.2"/>
<path class="st2" d="M157.1,274.8v-75.2"/>
<path class="st2" d="M62.4,274.8h94.7"/>
<path class="st2" d="M62.4,199.5h94.7"/>
<path class="st5" d="M121.9,262.2h9.3"/>
<path class="st5" d="M120.4,237.2h0.2"/>
<path class="st5" d="M117.7,212.1h3.6"/>
<path id="C2a_0_8e869cfa34" class="st6" d="M121.9,266.1c1,0,2-0.4,2.7-1.1c0.7-0.7,1.1-1.7,1.1-2.7s-0.4-2-1.1-2.7
	c-0.7-0.7-1.7-1.1-2.7-1.1s-2,0.4-2.7,1.1c-0.7,0.7-1.1,1.7-1.1,2.7s0.4,2,1.1,2.7C119.9,265.7,120.8,266.1,121.9,266.1z"/>
<path id="C2a_0_8e869cfa34-2" class="st6" d="M120.4,241c1,0,2-0.4,2.7-1.1c0.7-0.7,1.1-1.7,1.1-2.7s-0.4-2-1.1-2.7
	c-0.7-0.7-1.7-1.1-2.7-1.1s-2,0.4-2.7,1.1c-0.7,0.7-1.1,1.7-1.1,2.7s0.4,2,1.1,2.7C118.4,240.6,119.4,241,120.4,241z"/>
<path id="C2a_0_8e869cfa34-3" class="st6" d="M117.7,216c1,0,2-0.4,2.7-1.1c0.7-0.7,1.1-1.7,1.1-2.7s-0.4-2-1.1-2.7
	c-0.7-0.7-1.7-1.1-2.7-1.1s-2,0.4-2.7,1.1c-0.7,0.7-1.1,1.7-1.1,2.7s0.4,2,1.1,2.7C115.7,215.6,116.7,216,117.7,216z"/>
<path id="C2b_0_3a094640f7" class="st7" d="M131.1,266.1c1,0,2-0.4,2.7-1.1c0.7-0.7,1.1-1.7,1.1-2.7s-0.4-2-1.1-2.7
	c-0.7-0.7-1.7-1.1-2.7-1.1s-2,0.4-2.7,1.1c-0.7,0.7-1.1,1.7-1.1,2.7s0.4,2,1.1,2.7C129.1,265.7,130.1,266.1,131.1,266.1z"/>
<path id="C2b_0_3a094640f7-2" class="st7" d="M120.7,241c1,0,2-0.4,2.7-1.1c0.7-0.7,1.1-1.7,1.1-2.7s-0.4-2-1.1-2.7
	c-0.7-0.7-1.7-1.1-2.7-1.1s-2,0.4-2.7,1.1c-0.7,0.7-1.1,1.7-1.1,2.7s0.4,2,1.1,2.7C118.7,240.6,119.6,241,120.7,241z"/>
<path id="C2b_0_3a094640f7-3" class="st7" d="M121.3,216c1,0,2-0.4,2.7-1.1c0.7-0.7,1.1-1.7,1.1-2.7s-0.4-2-1.1-2.7
	c-0.7-0.7-1.7-1.1-2.7-1.1s-2,0.4-2.7,1.1c-0.7,0.7-1.1,1.7-1.1,2.7s0.4,2,1.1,2.7C119.3,215.6,120.3,216,121.3,216z"/>
<path class="st3" d="M169.7,274.8v-75.2"/>
<path id="mbe52e09add-6" class="st4" d="M169.7,274.8v3.5"/>
<path id="DejaVuSans-30-7" class="st8" d="M164.9,282.4c-0.3,0-0.5,0.1-0.7,0.5c-0.1,0.3-0.2,0.8-0.2,1.4s0.1,1,0.2,1.4
	c0.1,0.3,0.4,0.5,0.7,0.5s0.5-0.1,0.7-0.5c0.1-0.3,0.2-0.8,0.2-1.4s-0.1-1-0.2-1.4C165.5,282.5,165.2,282.4,164.9,282.4z
	 M164.9,281.9c0.5,0,0.9,0.2,1.1,0.6c0.3,0.4,0.4,1,0.4,1.7s-0.1,1.3-0.4,1.7s-0.6,0.6-1.1,0.6s-0.9-0.2-1.1-0.6
	c-0.3-0.4-0.4-1-0.4-1.7s0.1-1.3,0.4-1.7S164.4,281.9,164.9,281.9z"/>
<path id="DejaVuSans-2e-4" class="st8" d="M167.5,285.6h0.6v0.7h-0.6V285.6z"/>
<path id="DejaVuSans-39" class="st8" d="M169.4,286.3v-0.5c0.1,0.1,0.3,0.1,0.4,0.2s0.3,0.1,0.4,0.1c0.4,0,0.7-0.1,0.9-0.4
	c0.2-0.3,0.3-0.7,0.4-1.2c-0.1,0.2-0.3,0.3-0.4,0.4c-0.2,0.1-0.4,0.1-0.6,0.1c-0.4,0-0.8-0.1-1-0.4c-0.2-0.3-0.4-0.6-0.4-1.1
	s0.1-0.8,0.4-1.1c0.3-0.3,0.6-0.4,1.1-0.4c0.5,0,0.9,0.2,1.2,0.6c0.3,0.4,0.4,1,0.4,1.7c0,0.7-0.2,1.2-0.5,1.6s-0.8,0.6-1.3,0.6
	c-0.1,0-0.3,0-0.4,0S169.6,286.3,169.4,286.3L169.4,286.3z M170.6,284.4c0.3,0,0.5-0.1,0.6-0.3c0.2-0.2,0.2-0.4,0.2-0.8
	s-0.1-0.6-0.2-0.8c-0.1-0.2-0.4-0.3-0.6-0.3s-0.5,0.1-0.6,0.3c-0.2,0.2-0.2,0.4-0.2,0.8s0.1,0.6,0.2,0.8
	C170.1,284.3,170.3,284.4,170.6,284.4z"/>
<path id="DejaVuSans-30-8" class="st8" d="M174.5,282.4c-0.3,0-0.5,0.1-0.7,0.5c-0.1,0.3-0.2,0.8-0.2,1.4s0.1,1,0.2,1.4
	c0.1,0.3,0.4,0.5,0.7,0.5s0.5-0.1,0.7-0.5c0.1-0.3,0.2-0.8,0.2-1.4s-0.1-1-0.2-1.4C175,282.5,174.8,282.4,174.5,282.4z M174.5,281.9
	c0.5,0,0.9,0.2,1.1,0.6c0.3,0.4,0.4,1,0.4,1.7s-0.1,1.3-0.4,1.7s-0.6,0.6-1.1,0.6s-0.9-0.2-1.1-0.6c-0.3-0.4-0.4-1-0.4-1.7
	s0.1-1.3,0.4-1.7S174,281.9,174.5,281.9z"/>
<path class="st3" d="M189.4,274.8v-75.2"/>
<path id="mbe52e09add-7" class="st4" d="M189.4,274.5v2"/>
<path class="st3" d="M209.2,274.8v-75.2"/>
<path id="mbe52e09add-8" class="st4" d="M209.2,274.8v3.5"/>
<path id="DejaVuSans-31" class="st8" d="M203.2,285.9h1v-3.3l-1.1,0.2v-0.5l1.1-0.2h0.6v3.9h1v0.5h-2.5L203.2,285.9L203.2,285.9z"/>
<path id="DejaVuSans-2e-5" class="st8" d="M206.9,285.6h0.6v0.7h-0.6V285.6z"/>
<path id="DejaVuSans-30-9" class="st8" d="M210.1,282.4c-0.3,0-0.5,0.1-0.7,0.5c-0.1,0.3-0.2,0.8-0.2,1.4s0.1,1,0.2,1.4
	c0.1,0.3,0.4,0.5,0.7,0.5s0.5-0.1,0.7-0.5c0.1-0.3,0.2-0.8,0.2-1.4s-0.1-1-0.2-1.4C210.7,282.5,210.4,282.4,210.1,282.4z
	 M210.1,281.9c0.5,0,0.9,0.2,1.1,0.6c0.3,0.4,0.4,1,0.4,1.7s-0.1,1.3-0.4,1.7s-0.6,0.6-1.1,0.6s-0.9-0.2-1.1-0.6
	c-0.3-0.4-0.4-1-0.4-1.7s0.1-1.3,0.4-1.7S209.6,281.9,210.1,281.9z"/>
<path id="DejaVuSans-30-10" class="st8" d="M213.9,282.4c-0.3,0-0.5,0.1-0.7,0.5c-0.1,0.3-0.2,0.8-0.2,1.4s0.1,1,0.2,1.4
	c0.1,0.3,0.4,0.5,0.7,0.5s0.5-0.1,0.7-0.5c0.1-0.3,0.2-0.8,0.2-1.4s-0.1-1-0.2-1.4C214.5,282.5,214.2,282.4,213.9,282.4z
	 M213.9,281.9c0.5,0,0.9,0.2,1.1,0.6c0.3,0.4,0.4,1,0.4,1.7s-0.1,1.3-0.4,1.7s-0.6,0.6-1.1,0.6s-0.9-0.2-1.1-0.6
	c-0.3-0.4-0.4-1-0.4-1.7s0.1-1.3,0.4-1.7S213.5,281.9,213.9,281.9z"/>
<path class="st3" d="M228.9,274.8v-75.2"/>
<path id="mbe52e09add-9" class="st4" d="M228.9,274.5v2"/>
<path class="st3" d="M248.6,274.8v-75.2"/>
<path id="mbe52e09add-10" class="st4" d="M248.6,274.8v3.5"/>
<path id="DejaVuSans-31-2" class="st8" d="M242.7,285.9h1v-3.3l-1.1,0.2v-0.5l1.1-0.2h0.6v3.9h1v0.5h-2.5L242.7,285.9L242.7,285.9z"
	/>
<path id="DejaVuSans-2e-6" class="st8" d="M246.4,285.6h0.6v0.7h-0.6V285.6z"/>
<path id="DejaVuSans-31-3" class="st8" d="M248.4,285.9h1v-3.3l-1.1,0.2v-0.5l1.1-0.2h0.6v3.9h1v0.5h-2.5L248.4,285.9L248.4,285.9z"
	/>
<path id="DejaVuSans-30-11" class="st8" d="M253.4,282.4c-0.3,0-0.5,0.1-0.7,0.5c-0.1,0.3-0.2,0.8-0.2,1.4s0.1,1,0.2,1.4
	c0.1,0.3,0.4,0.5,0.7,0.5s0.5-0.1,0.7-0.5c0.1-0.3,0.2-0.8,0.2-1.4s-0.1-1-0.2-1.4C253.9,282.5,253.7,282.4,253.4,282.4z
	 M253.4,281.9c0.5,0,0.9,0.2,1.1,0.6c0.3,0.4,0.4,1,0.4,1.7s-0.1,1.3-0.4,1.7s-0.6,0.6-1.1,0.6s-0.9-0.2-1.1-0.6
	c-0.3-0.4-0.4-1-0.4-1.7s0.1-1.3,0.4-1.7S252.9,281.9,253.4,281.9z"/>
<g id="ytick_34">
	<g id="line2d_220">
		<path class="st3" d="M161.8,262.2h94.7"/>
	</g>
	<g id="line2d_221">
		<path id="mf15f803dce-25" class="st4" d="M161.8,262.2L161.8,262.2"/>
	</g>
</g>
<g id="ytick_35">
	<g id="line2d_222">
		<path class="st3" d="M161.8,237.2h94.7"/>
	</g>
	<g id="line2d_223">
		<path id="mf15f803dce-26" class="st4" d="M161.8,237.2L161.8,237.2"/>
	</g>
</g>
<g id="ytick_36">
	<g id="line2d_224">
		<path class="st3" d="M161.8,212.1h94.7"/>
	</g>
	<g id="line2d_225">
		<path id="mf15f803dce-27" class="st4" d="M161.8,212.1L161.8,212.1"/>
	</g>
</g>
<path class="st2" d="M161.8,274.8v-75.2"/>
<path class="st2" d="M256.5,274.8v-75.2"/>
<path class="st2" d="M161.8,274.8h94.7"/>
<path class="st2" d="M161.8,199.5h94.7"/>
<path class="st5" d="M209.2,262.2L209.2,262.2"/>
<path class="st5" d="M209.2,237.2L209.2,237.2"/>
<path class="st5" d="M209.2,212.1L209.2,212.1"/>
<path id="C2e_0_c3309bfced" class="st6" d="M209.2,266.1c1,0,2-0.4,2.7-1.1c0.7-0.7,1.1-1.7,1.1-2.7s-0.4-2-1.1-2.7
	c-0.7-0.7-1.7-1.1-2.7-1.1s-2,0.4-2.7,1.1c-0.7,0.7-1.1,1.7-1.1,2.7s0.4,2,1.1,2.7C207.2,265.7,208.1,266.1,209.2,266.1z"/>
<path id="C2e_0_c3309bfced-2" class="st6" d="M209.2,241c1,0,2-0.4,2.7-1.1c0.7-0.7,1.1-1.7,1.1-2.7s-0.4-2-1.1-2.7
	c-0.7-0.7-1.7-1.1-2.7-1.1s-2,0.4-2.7,1.1c-0.7,0.7-1.1,1.7-1.1,2.7s0.4,2,1.1,2.7C207.2,240.6,208.1,241,209.2,241z"/>
<path id="C2e_0_c3309bfced-3" class="st6" d="M209.2,216c1,0,2-0.4,2.7-1.1c0.7-0.7,1.1-1.7,1.1-2.7s-0.4-2-1.1-2.7
	c-0.7-0.7-1.7-1.1-2.7-1.1s-2,0.4-2.7,1.1c-0.7,0.7-1.1,1.7-1.1,2.7s0.4,2,1.1,2.7C207.2,215.6,208.1,216,209.2,216z"/>
<path id="C2f_0_19f9cf9fe2" class="st7" d="M209.2,266.1c1,0,2-0.4,2.7-1.1c0.7-0.7,1.1-1.7,1.1-2.7s-0.4-2-1.1-2.7
	c-0.7-0.7-1.7-1.1-2.7-1.1s-2,0.4-2.7,1.1c-0.7,0.7-1.1,1.7-1.1,2.7s0.4,2,1.1,2.7C207.2,265.7,208.1,266.1,209.2,266.1z"/>
<path id="C2f_0_19f9cf9fe2-2" class="st7" d="M209.2,241c1,0,2-0.4,2.7-1.1c0.7-0.7,1.1-1.7,1.1-2.7s-0.4-2-1.1-2.7
	c-0.7-0.7-1.7-1.1-2.7-1.1s-2,0.4-2.7,1.1c-0.7,0.7-1.1,1.7-1.1,2.7s0.4,2,1.1,2.7C207.2,240.6,208.1,241,209.2,241z"/>
<path id="C2f_0_19f9cf9fe2-3" class="st7" d="M209.2,216c1,0,2-0.4,2.7-1.1c0.7-0.7,1.1-1.7,1.1-2.7s-0.4-2-1.1-2.7
	c-0.7-0.7-1.7-1.1-2.7-1.1s-2,0.4-2.7,1.1c-0.7,0.7-1.1,1.7-1.1,2.7s0.4,2,1.1,2.7C207.2,215.6,208.1,216,209.2,216z"/>
<path class="st3" d="M269.1,274.8v-75.2"/>
<path id="mbe52e09add-11" class="st4" d="M269.1,274.8v3.5"/>
<path id="DejaVuSans-30-12" class="st8" d="M264.4,282.4c-0.3,0-0.5,0.1-0.7,0.5c-0.1,0.3-0.2,0.8-0.2,1.4s0.1,1,0.2,1.4
	c0.1,0.3,0.4,0.5,0.7,0.5s0.5-0.1,0.7-0.5c0.1-0.3,0.2-0.8,0.2-1.4s-0.1-1-0.2-1.4C264.9,282.5,264.7,282.4,264.4,282.4z
	 M264.4,281.9c0.5,0,0.9,0.2,1.1,0.6c0.3,0.4,0.4,1,0.4,1.7s-0.1,1.3-0.4,1.7s-0.6,0.6-1.1,0.6s-0.9-0.2-1.1-0.6
	c-0.3-0.4-0.4-1-0.4-1.7s0.1-1.3,0.4-1.7S263.9,281.9,264.4,281.9z"/>
<path id="DejaVuSans-2e-7" class="st8" d="M266.9,285.6h0.6v0.7h-0.6V285.6z"/>
<path id="DejaVuSans-39-2" class="st8" d="M268.9,286.3v-0.5c0.1,0.1,0.3,0.1,0.5,0.2c0.1,0,0.3,0.1,0.5,0.1c0.4,0,0.7-0.1,0.9-0.4
	c0.2-0.3,0.3-0.7,0.4-1.2c-0.1,0.2-0.3,0.3-0.4,0.4c-0.2,0.1-0.4,0.1-0.6,0.1c-0.4,0-0.8-0.1-1-0.4c-0.2-0.3-0.4-0.6-0.4-1.1
	s0.1-0.8,0.4-1.1s0.6-0.4,1.1-0.4c0.5,0,0.9,0.2,1.2,0.6c0.3,0.4,0.4,1,0.4,1.7c0,0.7-0.2,1.2-0.5,1.6s-0.8,0.6-1.3,0.6
	c-0.1,0-0.3,0-0.5,0C269.2,286.4,269,286.3,268.9,286.3L268.9,286.3z M270,284.4c0.3,0,0.5-0.1,0.6-0.3c0.2-0.2,0.2-0.4,0.2-0.8
	s-0.1-0.6-0.2-0.8c-0.1-0.2-0.4-0.3-0.6-0.3s-0.5,0.1-0.6,0.3c-0.2,0.2-0.2,0.4-0.2,0.8s0.1,0.6,0.2,0.8
	C269.6,284.3,269.8,284.4,270,284.4z"/>
<path id="DejaVuSans-30-13" class="st8" d="M273.9,282.4c-0.3,0-0.5,0.1-0.7,0.5c-0.1,0.3-0.2,0.8-0.2,1.4s0.1,1,0.2,1.4
	c0.1,0.3,0.4,0.5,0.7,0.5s0.5-0.1,0.7-0.5c0.1-0.3,0.2-0.8,0.2-1.4s-0.1-1-0.2-1.4C274.5,282.5,274.2,282.4,273.9,282.4z
	 M273.9,281.9c0.5,0,0.9,0.2,1.1,0.6c0.3,0.4,0.4,1,0.4,1.7s-0.1,1.3-0.4,1.7s-0.6,0.6-1.1,0.6s-0.9-0.2-1.1-0.6
	c-0.3-0.4-0.4-1-0.4-1.7s0.1-1.3,0.4-1.7S273.4,281.9,273.9,281.9z"/>
<path class="st3" d="M288.9,274.8v-75.2"/>
<path id="mbe52e09add-12" class="st4" d="M288.9,274.5v2"/>
<path class="st3" d="M308.6,274.8v-75.2"/>
<path id="mbe52e09add-13" class="st4" d="M308.6,274.8v3.5"/>
<path id="DejaVuSans-31-4" class="st8" d="M302.7,285.9h1v-3.3l-1,0.2v-0.5l1-0.2h0.6v3.9h1v0.5h-2.5L302.7,285.9L302.7,285.9z"/>
<path id="DejaVuSans-2e-8" class="st8" d="M306.4,285.6h0.6v0.7h-0.6V285.6z"/>
<path id="DejaVuSans-30-14" class="st8" d="M309.6,282.4c-0.3,0-0.5,0.1-0.7,0.5c-0.1,0.3-0.2,0.8-0.2,1.4s0.1,1,0.2,1.4
	c0.1,0.3,0.4,0.5,0.7,0.5s0.5-0.1,0.7-0.5c0.1-0.3,0.2-0.8,0.2-1.4s-0.1-1-0.2-1.4C310.1,282.5,309.9,282.4,309.6,282.4z
	 M309.6,281.9c0.5,0,0.9,0.2,1.1,0.6c0.3,0.4,0.4,1,0.4,1.7s-0.1,1.3-0.4,1.7s-0.6,0.6-1.1,0.6s-0.9-0.2-1.1-0.6
	c-0.3-0.4-0.4-1-0.4-1.7s0.1-1.3,0.4-1.7S309.1,281.9,309.6,281.9z"/>
<path id="DejaVuSans-30-15" class="st8" d="M313.4,282.4c-0.3,0-0.5,0.1-0.7,0.5c-0.1,0.3-0.2,0.8-0.2,1.4s0.1,1,0.2,1.4
	c0.1,0.3,0.4,0.5,0.7,0.5s0.5-0.1,0.7-0.5c0.1-0.3,0.2-0.8,0.2-1.4s-0.1-1-0.2-1.4C313.9,282.5,313.7,282.4,313.4,282.4z
	 M313.4,281.9c0.5,0,0.9,0.2,1.1,0.6c0.3,0.4,0.4,1,0.4,1.7s-0.1,1.3-0.4,1.7s-0.6,0.6-1.1,0.6s-0.9-0.2-1.1-0.6
	c-0.3-0.4-0.4-1-0.4-1.7s0.1-1.3,0.4-1.7S312.9,281.9,313.4,281.9z"/>
<path class="st3" d="M328.3,274.8v-75.2"/>
<path id="mbe52e09add-14" class="st4" d="M328.3,274.5v2"/>
<path class="st3" d="M348.1,274.8v-75.2"/>
<path id="mbe52e09add-15" class="st4" d="M348.1,274.8v3.5"/>
<path id="DejaVuSans-31-5" class="st8" d="M342.1,285.9h1v-3.3l-1,0.2v-0.5l1-0.2h0.6v3.9h1v0.5h-2.5L342.1,285.9L342.1,285.9z"/>
<path id="DejaVuSans-2e-9" class="st8" d="M345.9,285.6h0.6v0.7h-0.6V285.6z"/>
<path id="DejaVuSans-31-6" class="st8" d="M347.9,285.9h1v-3.3l-1,0.2v-0.5l1-0.2h0.6v3.9h1v0.5h-2.5L347.9,285.9L347.9,285.9z"/>
<path id="DejaVuSans-30-16" class="st8" d="M352.8,282.4c-0.3,0-0.5,0.1-0.7,0.5c-0.1,0.3-0.2,0.8-0.2,1.4s0.1,1,0.2,1.4
	c0.1,0.3,0.4,0.5,0.7,0.5s0.5-0.1,0.7-0.5c0.1-0.3,0.2-0.8,0.2-1.4s-0.1-1-0.2-1.4C353.4,282.5,353.1,282.4,352.8,282.4z
	 M352.8,281.9c0.5,0,0.9,0.2,1.1,0.6c0.3,0.4,0.4,1,0.4,1.7s-0.1,1.3-0.4,1.7s-0.6,0.6-1.1,0.6s-0.9-0.2-1.1-0.6
	c-0.3-0.4-0.4-1-0.4-1.7s0.1-1.3,0.4-1.7S352.4,281.9,352.8,281.9z"/>
<g id="ytick_37">
	<g id="line2d_239">
		<path class="st3" d="M261.3,262.2H356"/>
	</g>
	<g id="line2d_240">
		<path id="mf15f803dce-28" class="st4" d="M261.3,262.2L261.3,262.2"/>
	</g>
</g>
<g id="ytick_38">
	<g id="line2d_241">
		<path class="st3" d="M261.3,237.2H356"/>
	</g>
	<g id="line2d_242">
		<path id="mf15f803dce-29" class="st4" d="M261.3,237.2L261.3,237.2"/>
	</g>
</g>
<g id="ytick_39">
	<g id="line2d_243">
		<path class="st3" d="M261.3,212.1H356"/>
	</g>
	<g id="line2d_244">
		<path id="mf15f803dce-30" class="st4" d="M261.3,212.1L261.3,212.1"/>
	</g>
</g>
<path class="st2" d="M261.3,274.8v-75.2"/>
<path class="st2" d="M356,274.8v-75.2"/>
<path class="st2" d="M261.3,274.8H356"/>
<path class="st2" d="M261.3,199.5H356"/>
<path class="st5" d="M306.3,262.2L306.3,262.2"/>
<path class="st5" d="M307.5,237.2h-2.1"/>
<path class="st5" d="M299.5,212.1h4.7"/>
<path id="C32_0_8a79e73d88" class="st6" d="M306.3,266.1c1,0,2-0.4,2.7-1.1c0.7-0.7,1.1-1.7,1.1-2.7s-0.4-2-1.1-2.7
	c-0.7-0.7-1.7-1.1-2.7-1.1s-2,0.4-2.7,1.1c-0.7,0.7-1.1,1.7-1.1,2.7s0.4,2,1.1,2.7C304.3,265.7,305.3,266.1,306.3,266.1z"/>
<path id="C32_0_8a79e73d88-2" class="st6" d="M307.5,241c1,0,2-0.4,2.7-1.1c0.7-0.7,1.1-1.7,1.1-2.7s-0.4-2-1.1-2.7
	c-0.7-0.7-1.7-1.1-2.7-1.1s-2,0.4-2.7,1.1c-0.7,0.7-1.1,1.7-1.1,2.7s0.4,2,1.1,2.7C305.5,240.6,306.4,241,307.5,241z"/>
<path id="C32_0_8a79e73d88-3" class="st6" d="M299.5,216c1,0,2-0.4,2.7-1.1c0.7-0.7,1.1-1.7,1.1-2.7s-0.4-2-1.1-2.7
	c-0.7-0.7-1.7-1.1-2.7-1.1s-2,0.4-2.7,1.1c-0.7,0.7-1.1,1.7-1.1,2.7s0.4,2,1.1,2.7C297.5,215.6,298.5,216,299.5,216z"/>
<path id="C33_0_5b3f94c3aa" class="st7" d="M306.3,266.1c1,0,2-0.4,2.7-1.1c0.7-0.7,1.1-1.7,1.1-2.7s-0.4-2-1.1-2.7
	c-0.7-0.7-1.7-1.1-2.7-1.1s-2,0.4-2.7,1.1c-0.7,0.7-1.1,1.7-1.1,2.7s0.4,2,1.1,2.7C304.3,265.7,305.3,266.1,306.3,266.1z"/>
<path id="C33_0_5b3f94c3aa-2" class="st7" d="M305.4,241c1,0,2-0.4,2.7-1.1c0.7-0.7,1.1-1.7,1.1-2.7s-0.4-2-1.1-2.7
	c-0.7-0.7-1.7-1.1-2.7-1.1s-2,0.4-2.7,1.1c-0.7,0.7-1.1,1.7-1.1,2.7s0.4,2,1.1,2.7C303.4,240.6,304.4,241,305.4,241z"/>
<path id="C33_0_5b3f94c3aa-3" class="st7" d="M304.2,216c1,0,2-0.4,2.7-1.1c0.7-0.7,1.1-1.7,1.1-2.7s-0.4-2-1.1-2.7
	c-0.7-0.7-1.7-1.1-2.7-1.1s-2,0.4-2.7,1.1c-0.7,0.7-1.1,1.7-1.1,2.7s0.4,2,1.1,2.7C302.2,215.6,303.2,216,304.2,216z"/>
<path class="st3" d="M368.6,274.8v-75.2"/>
<path id="mbe52e09add-16" class="st4" d="M368.6,274.8v3.5"/>
<path id="DejaVuSans-30-17" class="st8" d="M363.8,282.4c-0.3,0-0.5,0.1-0.7,0.5c-0.1,0.3-0.2,0.8-0.2,1.4s0.1,1,0.2,1.4
	c0.1,0.3,0.4,0.5,0.7,0.5s0.5-0.1,0.7-0.5c0.1-0.3,0.2-0.8,0.2-1.4s-0.1-1-0.2-1.4C364.4,282.5,364.1,282.4,363.8,282.4z
	 M363.8,281.9c0.5,0,0.9,0.2,1.1,0.6c0.3,0.4,0.4,1,0.4,1.7s-0.1,1.3-0.4,1.7s-0.6,0.6-1.1,0.6s-0.9-0.2-1.1-0.6
	c-0.3-0.4-0.4-1-0.4-1.7s0.1-1.3,0.4-1.7S363.3,281.9,363.8,281.9z"/>
<path id="DejaVuSans-2e-10" class="st8" d="M366.4,285.6h0.6v0.7h-0.6V285.6z"/>
<path id="DejaVuSans-33-2" class="st8" d="M370.1,284c0.3,0.1,0.5,0.2,0.7,0.4s0.2,0.4,0.2,0.7c0,0.4-0.1,0.8-0.5,1
	c-0.3,0.2-0.7,0.4-1.3,0.4c-0.2,0-0.4,0-0.6,0c-0.2,0-0.4-0.1-0.6-0.2v-0.6c0.2,0.1,0.3,0.2,0.5,0.2s0.4,0.1,0.6,0.1
	c0.4,0,0.6-0.1,0.9-0.2s0.3-0.4,0.3-0.6c0-0.3-0.1-0.5-0.3-0.6c-0.2-0.1-0.4-0.2-0.8-0.2h-0.5v-0.5h0.5c0.3,0,0.5-0.1,0.7-0.2
	s0.2-0.3,0.2-0.5s-0.1-0.4-0.2-0.5s-0.4-0.2-0.7-0.2c-0.2,0-0.3,0-0.5,0c-0.2,0-0.4,0.1-0.6,0.2v-0.5c0.2-0.1,0.4-0.1,0.6-0.1
	s0.4,0,0.5,0c0.5,0,0.8,0.1,1.1,0.3c0.3,0.2,0.4,0.5,0.4,0.8c0,0.2-0.1,0.5-0.2,0.6S370.3,283.9,370.1,284L370.1,284z"/>
<path id="DejaVuSans-30-18" class="st8" d="M373.4,282.4c-0.3,0-0.5,0.1-0.7,0.5c-0.1,0.3-0.2,0.8-0.2,1.4s0.1,1,0.2,1.4
	c0.1,0.3,0.4,0.5,0.7,0.5s0.5-0.1,0.7-0.5c0.1-0.3,0.2-0.8,0.2-1.4s-0.1-1-0.2-1.4C373.9,282.5,373.7,282.4,373.4,282.4z
	 M373.4,281.9c0.5,0,0.9,0.2,1.1,0.6c0.3,0.4,0.4,1,0.4,1.7s-0.1,1.3-0.4,1.7s-0.6,0.6-1.1,0.6s-0.9-0.2-1.1-0.6
	c-0.3-0.4-0.4-1-0.4-1.7s0.1-1.3,0.4-1.7S372.9,281.9,373.4,281.9z"/>
<path class="st3" d="M387.5,274.8v-75.2"/>
<path id="mbe52e09add-17" class="st4" d="M387.5,274.5v2"/>
<path class="st3" d="M408,274.8v-75.2"/>
<path id="mbe52e09add-18" class="st4" d="M408,274.8v3.5"/>
<path id="DejaVuSans-30-19" class="st8" d="M403.3,282.4c-0.3,0-0.5,0.1-0.7,0.5c-0.1,0.3-0.2,0.8-0.2,1.4s0.1,1,0.2,1.4
	c0.1,0.3,0.4,0.5,0.7,0.5s0.5-0.1,0.7-0.5c0.1-0.3,0.2-0.8,0.2-1.4s-0.1-1-0.2-1.4C403.8,282.5,403.6,282.4,403.3,282.4z
	 M403.3,281.9c0.5,0,0.9,0.2,1.1,0.6c0.3,0.4,0.4,1,0.4,1.7s-0.1,1.3-0.4,1.7s-0.6,0.6-1.1,0.6s-0.9-0.2-1.1-0.6
	c-0.3-0.4-0.4-1-0.4-1.7s0.1-1.3,0.4-1.7S402.8,281.9,403.3,281.9z"/>
<path id="DejaVuSans-2e-11" class="st8" d="M405.8,285.6h0.6v0.7h-0.6V285.6z"/>
<path id="DejaVuSans-35-2" class="st8" d="M407.8,282h2.3v0.5h-1.8v1.1c0.1,0,0.2,0,0.3-0.1c0.1,0,0.2,0,0.3,0
	c0.5,0,0.9,0.1,1.2,0.4s0.4,0.6,0.4,1.1s-0.1,0.8-0.4,1.1s-0.7,0.4-1.2,0.4c-0.2,0-0.4,0-0.6,0s-0.4-0.1-0.6-0.1v-0.6
	c0.2,0.1,0.4,0.2,0.5,0.2s0.4,0.1,0.6,0.1c0.3,0,0.6-0.1,0.8-0.3c0.2-0.2,0.3-0.4,0.3-0.7s-0.1-0.5-0.3-0.7
	c-0.2-0.2-0.5-0.3-0.8-0.3c-0.2,0-0.3,0-0.5,0c-0.2,0-0.3,0.1-0.5,0.2L407.8,282L407.8,282z"/>
<path id="DejaVuSans-35-3" class="st8" d="M411.6,282h2.3v0.5h-1.8v1.1c0.1,0,0.2,0,0.3-0.1c0.1,0,0.2,0,0.3,0
	c0.5,0,0.9,0.1,1.2,0.4s0.4,0.6,0.4,1.1s-0.1,0.8-0.4,1.1s-0.7,0.4-1.2,0.4c-0.2,0-0.4,0-0.6,0s-0.4-0.1-0.6-0.1v-0.6
	c0.2,0.1,0.4,0.2,0.5,0.2s0.4,0.1,0.6,0.1c0.3,0,0.6-0.1,0.8-0.3c0.2-0.2,0.3-0.4,0.3-0.7s-0.1-0.5-0.3-0.7
	c-0.2-0.2-0.5-0.3-0.8-0.3c-0.2,0-0.3,0-0.5,0c-0.2,0-0.3,0.1-0.5,0.2L411.6,282L411.6,282z"/>
<path class="st3" d="M428.6,274.8v-75.2"/>
<path id="mbe52e09add-19" class="st4" d="M428.6,274.5v2"/>
<path class="st3" d="M447.5,274.8v-75.2"/>
<path id="mbe52e09add-20" class="st4" d="M447.5,274.8v3.5"/>
<path id="DejaVuSans-30-20" class="st8" d="M442.7,282.4c-0.3,0-0.5,0.1-0.7,0.5c-0.1,0.3-0.2,0.8-0.2,1.4s0.1,1,0.2,1.4
	c0.1,0.3,0.4,0.5,0.7,0.5s0.5-0.1,0.7-0.5c0.1-0.3,0.2-0.8,0.2-1.4s-0.1-1-0.2-1.4C443.3,282.5,443,282.4,442.7,282.4z M442.7,281.9
	c0.5,0,0.9,0.2,1.1,0.6c0.3,0.4,0.4,1,0.4,1.7s-0.1,1.3-0.4,1.7s-0.6,0.6-1.1,0.6s-0.9-0.2-1.1-0.6c-0.3-0.4-0.4-1-0.4-1.7
	s0.1-1.3,0.4-1.7S442.2,281.9,442.7,281.9z"/>
<path id="DejaVuSans-2e-12" class="st8" d="M445.3,285.6h0.6v0.7h-0.6V285.6z"/>
<path id="DejaVuSans-38" class="st8" d="M448.5,284.3c-0.3,0-0.5,0.1-0.7,0.2c-0.2,0.1-0.2,0.4-0.2,0.6s0.1,0.5,0.2,0.6
	s0.4,0.2,0.7,0.2s0.5-0.1,0.7-0.2c0.2-0.1,0.2-0.4,0.2-0.6s-0.1-0.5-0.2-0.6S448.8,284.3,448.5,284.3L448.5,284.3z M447.9,284
	c-0.2-0.1-0.5-0.2-0.6-0.4c-0.1-0.2-0.2-0.4-0.2-0.6c0-0.4,0.1-0.6,0.4-0.8c0.2-0.2,0.6-0.3,1-0.3s0.8,0.1,1,0.3s0.4,0.5,0.4,0.8
	c0,0.2-0.1,0.5-0.2,0.6c-0.1,0.2-0.3,0.3-0.6,0.4c0.3,0.1,0.5,0.2,0.7,0.4s0.2,0.4,0.2,0.7c0,0.4-0.1,0.8-0.4,1s-0.6,0.3-1.1,0.3
	s-0.9-0.1-1.1-0.3c-0.3-0.2-0.4-0.5-0.4-1c0-0.3,0.1-0.5,0.2-0.7C447.4,284.2,447.6,284.1,447.9,284L447.9,284z M447.7,283.1
	c0,0.2,0.1,0.4,0.2,0.5c0.1,0.1,0.3,0.2,0.6,0.2s0.5-0.1,0.6-0.2c0.1-0.1,0.2-0.3,0.2-0.5s-0.1-0.4-0.2-0.5
	c-0.1-0.1-0.3-0.2-0.6-0.2s-0.5,0.1-0.6,0.2C447.7,282.7,447.7,282.9,447.7,283.1z"/>
<path id="DejaVuSans-30-21" class="st8" d="M452.3,282.4c-0.3,0-0.5,0.1-0.7,0.5c-0.1,0.3-0.2,0.8-0.2,1.4s0.1,1,0.2,1.4
	c0.1,0.3,0.4,0.5,0.7,0.5s0.5-0.1,0.7-0.5c0.1-0.3,0.2-0.8,0.2-1.4s-0.1-1-0.2-1.4C452.8,282.5,452.6,282.4,452.3,282.4z
	 M452.3,281.9c0.5,0,0.9,0.2,1.1,0.6c0.3,0.4,0.4,1,0.4,1.7s-0.1,1.3-0.4,1.7s-0.6,0.6-1.1,0.6s-0.9-0.2-1.1-0.6
	c-0.3-0.4-0.4-1-0.4-1.7s0.1-1.3,0.4-1.7S451.8,281.9,452.3,281.9z"/>
<g id="ytick_40">
	<g id="line2d_258">
		<path class="st3" d="M360.7,262.2h94.7"/>
	</g>
	<g id="line2d_259">
		<path id="mf15f803dce-31" class="st4" d="M360.7,262.2L360.7,262.2"/>
	</g>
</g>
<g id="ytick_41">
	<g id="line2d_260">
		<path class="st3" d="M360.7,237.2h94.7"/>
	</g>
	<g id="line2d_261">
		<path id="mf15f803dce-32" class="st4" d="M360.7,237.2L360.7,237.2"/>
	</g>
</g>
<g id="ytick_42">
	<g id="line2d_262">
		<path class="st3" d="M360.7,212.1h94.7"/>
	</g>
	<g id="line2d_263">
		<path id="mf15f803dce-33" class="st4" d="M360.7,212.1L360.7,212.1"/>
	</g>
</g>
<path class="st2" d="M360.7,274.8v-75.2"/>
<path class="st2" d="M455.4,274.8v-75.2"/>
<path class="st2" d="M360.7,274.8h94.7"/>
<path class="st2" d="M360.7,199.5h94.7"/>
<path class="st5" d="M439.9,262.2h1.3"/>
<path class="st5" d="M425.2,237.2h2.8"/>
<path class="st5" d="M435.1,212.1h-13.7"/>
<path id="C36_0_1645cc31a0" class="st6" d="M439.9,266.1c1,0,2-0.4,2.7-1.1c0.7-0.7,1.1-1.7,1.1-2.7s-0.4-2-1.1-2.7
	c-0.7-0.7-1.7-1.1-2.7-1.1s-2,0.4-2.7,1.1c-0.7,0.7-1.1,1.7-1.1,2.7s0.4,2,1.1,2.7C437.9,265.7,438.9,266.1,439.9,266.1z"/>
<path id="C36_0_1645cc31a0-2" class="st6" d="M425.2,241c1,0,2-0.4,2.7-1.1c0.7-0.7,1.1-1.7,1.1-2.7s-0.4-2-1.1-2.7
	c-0.7-0.7-1.7-1.1-2.7-1.1s-2,0.4-2.7,1.1c-0.7,0.7-1.1,1.7-1.1,2.7s0.4,2,1.1,2.7C423.2,240.6,424.2,241,425.2,241z"/>
<path id="C36_0_1645cc31a0-3" class="st6" d="M435.1,216c1,0,2-0.4,2.7-1.1c0.7-0.7,1.1-1.7,1.1-2.7s-0.4-2-1.1-2.7
	c-0.7-0.7-1.7-1.1-2.7-1.1s-2,0.4-2.7,1.1c-0.7,0.7-1.1,1.7-1.1,2.7s0.4,2,1.1,2.7C433.1,215.6,434.1,216,435.1,216z"/>
<path id="C37_0_8b06e40055" class="st7" d="M441.2,266.1c1,0,2-0.4,2.7-1.1c0.7-0.7,1.1-1.7,1.1-2.7s-0.4-2-1.1-2.7
	c-0.7-0.7-1.7-1.1-2.7-1.1s-2,0.4-2.7,1.1c-0.7,0.7-1.1,1.7-1.1,2.7s0.4,2,1.1,2.7C439.2,265.7,440.2,266.1,441.2,266.1z"/>
<path id="C37_0_8b06e40055-2" class="st7" d="M428,241c1,0,2-0.4,2.7-1.1c0.7-0.7,1.1-1.7,1.1-2.7s-0.4-2-1.1-2.7
	c-0.7-0.7-1.7-1.1-2.7-1.1s-2,0.4-2.7,1.1c-0.7,0.7-1.1,1.7-1.1,2.7s0.4,2,1.1,2.7C426,240.6,427,241,428,241z"/>
<path id="C37_0_8b06e40055-3" class="st7" d="M421.4,216c1,0,2-0.4,2.7-1.1c0.7-0.7,1.1-1.7,1.1-2.7s-0.4-2-1.1-2.7
	c-0.7-0.7-1.7-1.1-2.7-1.1s-2,0.4-2.7,1.1c-0.7,0.7-1.1,1.7-1.1,2.7s0.4,2,1.1,2.7C419.4,215.6,420.4,216,421.4,216z"/>
<path class="st3" d="M468,274.8v-75.2"/>
<path id="mbe52e09add-21" class="st4" d="M468,274.8v3.5"/>
<path id="DejaVuSans-30-22" class="st8" d="M463.3,282.4c-0.3,0-0.5,0.1-0.7,0.5c-0.1,0.3-0.2,0.8-0.2,1.4s0.1,1,0.2,1.4
	c0.1,0.3,0.4,0.5,0.7,0.5s0.5-0.1,0.7-0.5c0.1-0.3,0.2-0.8,0.2-1.4s-0.1-1-0.2-1.4C463.8,282.5,463.6,282.4,463.3,282.4z
	 M463.3,281.9c0.5,0,0.9,0.2,1.1,0.6c0.3,0.4,0.4,1,0.4,1.7s-0.1,1.3-0.4,1.7s-0.6,0.6-1.1,0.6s-0.9-0.2-1.1-0.6
	c-0.3-0.4-0.4-1-0.4-1.7s0.1-1.3,0.4-1.7S462.8,281.9,463.3,281.9z"/>
<path id="DejaVuSans-2e-13" class="st8" d="M465.8,285.6h0.6v0.7h-0.6V285.6z"/>
<path id="DejaVuSans-32" class="st8" d="M468.2,285.9h2.1v0.5h-2.8v-0.5c0.2-0.2,0.5-0.5,0.9-0.9c0.4-0.4,0.6-0.6,0.7-0.8
	c0.2-0.2,0.3-0.4,0.4-0.5s0.1-0.3,0.1-0.4c0-0.2-0.1-0.4-0.2-0.6s-0.4-0.2-0.6-0.2c-0.2,0-0.4,0-0.6,0.1c-0.2,0.1-0.4,0.2-0.7,0.3
	v-0.6c0.2-0.1,0.5-0.2,0.7-0.2c0.2,0,0.4-0.1,0.6-0.1c0.5,0,0.8,0.1,1.1,0.3s0.4,0.5,0.4,0.9c0,0.2,0,0.4-0.1,0.5s-0.2,0.4-0.4,0.6
	c0,0.1-0.2,0.2-0.5,0.5C469.1,285,468.7,285.4,468.2,285.9L468.2,285.9z"/>
<path id="DejaVuSans-30-23" class="st8" d="M472.8,282.4c-0.3,0-0.5,0.1-0.7,0.5c-0.1,0.3-0.2,0.8-0.2,1.4s0.1,1,0.2,1.4
	c0.1,0.3,0.4,0.5,0.7,0.5s0.5-0.1,0.7-0.5c0.1-0.3,0.2-0.8,0.2-1.4s-0.1-1-0.2-1.4C473.4,282.5,473.1,282.4,472.8,282.4z
	 M472.8,281.9c0.5,0,0.9,0.2,1.1,0.6c0.3,0.4,0.4,1,0.4,1.7s-0.1,1.3-0.4,1.7s-0.6,0.6-1.1,0.6s-0.9-0.2-1.1-0.6
	c-0.3-0.4-0.4-1-0.4-1.7s0.1-1.3,0.4-1.7S472.3,281.9,472.8,281.9z"/>
<path class="st3" d="M487,274.8v-75.2"/>
<path id="mbe52e09add-22" class="st4" d="M487,274.5v2"/>
<path class="st3" d="M507.5,274.8v-75.2"/>
<path id="mbe52e09add-23" class="st4" d="M507.5,274.8v3.5"/>
<path id="DejaVuSans-30-24" class="st8" d="M502.7,282.4c-0.3,0-0.5,0.1-0.7,0.5c-0.1,0.3-0.2,0.8-0.2,1.4s0.1,1,0.2,1.4
	c0.1,0.3,0.4,0.5,0.7,0.5s0.5-0.1,0.7-0.5c0.1-0.3,0.2-0.8,0.2-1.4s-0.1-1-0.2-1.4C503.3,282.5,503,282.4,502.7,282.4z M502.7,281.9
	c0.5,0,0.9,0.2,1.1,0.6c0.3,0.4,0.4,1,0.4,1.7s-0.1,1.3-0.4,1.7s-0.6,0.6-1.1,0.6s-0.9-0.2-1.1-0.6c-0.3-0.4-0.4-1-0.4-1.7
	s0.1-1.3,0.4-1.7S502.2,281.9,502.7,281.9z"/>
<path id="DejaVuSans-2e-14" class="st8" d="M505.3,285.6h0.6v0.7h-0.6V285.6z"/>
<path id="DejaVuSans-34" class="st8" d="M508.8,282.5l-1.5,2.3h1.5V282.5z M508.6,282h0.7v2.9h0.6v0.5h-0.6v1h-0.6v-1h-2v-0.6
	L508.6,282z"/>
<path id="DejaVuSans-35-4" class="st8" d="M511,282h2.3v0.5h-1.8v1.1c0.1,0,0.2,0,0.3-0.1c0.1,0,0.2,0,0.3,0c0.5,0,0.9,0.1,1.2,0.4
	s0.4,0.6,0.4,1.1s-0.2,0.8-0.4,1.1s-0.7,0.4-1.2,0.4c-0.2,0-0.4,0-0.6,0s-0.4-0.1-0.6-0.1v-0.6c0.2,0.1,0.4,0.2,0.5,0.2
	s0.4,0.1,0.6,0.1c0.3,0,0.6-0.1,0.8-0.3c0.2-0.2,0.3-0.4,0.3-0.7s-0.1-0.5-0.3-0.7c-0.2-0.2-0.5-0.3-0.8-0.3c-0.2,0-0.3,0-0.5,0
	c-0.2,0-0.3,0.1-0.5,0.2V282L511,282z"/>
<path class="st3" d="M526.4,274.8v-75.2"/>
<path id="mbe52e09add-24" class="st4" d="M526.4,274.5v2"/>
<path class="st3" d="M547,274.8v-75.2"/>
<path id="mbe52e09add-25" class="st4" d="M547,274.8v3.5"/>
<path id="DejaVuSans-30-25" class="st8" d="M542.2,282.4c-0.3,0-0.5,0.1-0.7,0.5c-0.2,0.3-0.2,0.8-0.2,1.4s0.1,1,0.2,1.4
	c0.2,0.3,0.4,0.5,0.7,0.5s0.5-0.1,0.7-0.5c0.2-0.3,0.2-0.8,0.2-1.4s-0.1-1-0.2-1.4C542.7,282.5,542.5,282.4,542.2,282.4z
	 M542.2,281.9c0.5,0,0.9,0.2,1.1,0.6c0.3,0.4,0.4,1,0.4,1.7s-0.1,1.3-0.4,1.7s-0.6,0.6-1.1,0.6s-0.9-0.2-1.1-0.6
	c-0.3-0.4-0.4-1-0.4-1.7s0.1-1.3,0.4-1.7S541.7,281.9,542.2,281.9z"/>
<path id="DejaVuSans-2e-15" class="st8" d="M544.7,285.6h0.6v0.7h-0.6V285.6z"/>
<path id="DejaVuSans-37-2" class="st8" d="M546.5,282h2.8v0.2l-1.6,4.1h-0.6l1.5-3.9h-2.1L546.5,282L546.5,282z"/>
<path id="DejaVuSans-30-26" class="st8" d="M551.7,282.4c-0.3,0-0.5,0.1-0.7,0.5c-0.2,0.3-0.2,0.8-0.2,1.4s0.1,1,0.2,1.4
	c0.2,0.3,0.4,0.5,0.7,0.5s0.5-0.1,0.7-0.5c0.2-0.3,0.2-0.8,0.2-1.4s-0.1-1-0.2-1.4C552.3,282.5,552,282.4,551.7,282.4z M551.7,281.9
	c0.5,0,0.9,0.2,1.1,0.6c0.3,0.4,0.4,1,0.4,1.7s-0.1,1.3-0.4,1.7s-0.6,0.6-1.1,0.6s-0.9-0.2-1.1-0.6c-0.3-0.4-0.4-1-0.4-1.7
	s0.1-1.3,0.4-1.7S551.2,281.9,551.7,281.9z"/>
<g id="ytick_43">
	<g id="line2d_277">
		<path class="st3" d="M460.1,262.2h94.7"/>
	</g>
	<g id="line2d_278">
		<path id="mf15f803dce-34" class="st4" d="M460.1,262.2L460.1,262.2"/>
	</g>
</g>
<g id="ytick_44">
	<g id="line2d_279">
		<path class="st3" d="M460.1,237.2h94.7"/>
	</g>
	<g id="line2d_280">
		<path id="mf15f803dce-35" class="st4" d="M460.1,237.2L460.1,237.2"/>
	</g>
</g>
<g id="ytick_45">
	<g id="line2d_281">
		<path class="st3" d="M460.1,212.1h94.7"/>
	</g>
	<g id="line2d_282">
		<path id="mf15f803dce-36" class="st4" d="M460.1,212.1L460.1,212.1"/>
	</g>
</g>
<path class="st2" d="M460.1,274.8v-75.2"/>
<path class="st2" d="M554.8,274.8v-75.2"/>
<path class="st2" d="M460.1,274.8h94.7"/>
<path class="st2" d="M460.1,199.5h94.7"/>
<path class="st5" d="M530.2,262.2L530.2,262.2"/>
<path class="st5" d="M520.2,237.2H520"/>
<path class="st5" d="M520.2,212.1h1.7"/>
<path id="C3a_0_99f668678f" class="st6" d="M530.2,266.1c1,0,2-0.4,2.7-1.1c0.7-0.7,1.1-1.7,1.1-2.7s-0.4-2-1.1-2.7
	c-0.7-0.7-1.7-1.1-2.7-1.1s-2,0.4-2.7,1.1c-0.7,0.7-1.1,1.7-1.1,2.7s0.4,2,1.1,2.7C528.2,265.7,529.2,266.1,530.2,266.1z"/>
<path id="C3a_0_99f668678f-2" class="st6" d="M520.2,241c1,0,2-0.4,2.7-1.1c0.7-0.7,1.1-1.7,1.1-2.7s-0.4-2-1.1-2.7
	c-0.7-0.7-1.7-1.1-2.7-1.1s-2,0.4-2.7,1.1c-0.7,0.7-1.1,1.7-1.1,2.7s0.4,2,1.1,2.7C518.2,240.6,519.2,241,520.2,241z"/>
<path id="C3a_0_99f668678f-3" class="st6" d="M520.2,216c1,0,2-0.4,2.7-1.1c0.7-0.7,1.1-1.7,1.1-2.7s-0.4-2-1.1-2.7
	c-0.7-0.7-1.7-1.1-2.7-1.1s-2,0.4-2.7,1.1c-0.7,0.7-1.1,1.7-1.1,2.7s0.4,2,1.1,2.7C518.2,215.6,519.2,216,520.2,216z"/>
<path id="C3b_0_cf12e5dfb0" class="st7" d="M530.2,266.1c1,0,2-0.4,2.7-1.1c0.7-0.7,1.1-1.7,1.1-2.7s-0.4-2-1.1-2.7
	c-0.7-0.7-1.7-1.1-2.7-1.1s-2,0.4-2.7,1.1c-0.7,0.7-1.1,1.7-1.1,2.7s0.4,2,1.1,2.7C528.2,265.7,529.2,266.1,530.2,266.1z"/>
<path id="C3b_0_cf12e5dfb0-2" class="st7" d="M520,241c1,0,2-0.4,2.7-1.1c0.7-0.7,1.1-1.7,1.1-2.7s-0.4-2-1.1-2.7
	c-0.7-0.7-1.7-1.1-2.7-1.1s-2,0.4-2.7,1.1c-0.7,0.7-1.1,1.7-1.1,2.7s0.4,2,1.1,2.7C518,240.6,518.9,241,520,241z"/>
<path id="C3b_0_cf12e5dfb0-3" class="st7" d="M521.9,216c1,0,2-0.4,2.7-1.1c0.7-0.7,1.1-1.7,1.1-2.7s-0.4-2-1.1-2.7
	c-0.7-0.7-1.7-1.1-2.7-1.1s-2,0.4-2.7,1.1c-0.7,0.7-1.1,1.7-1.1,2.7s0.4,2,1.1,2.7C519.9,215.6,520.9,216,521.9,216z"/>
<text transform="matrix(1 0 0 1 13.29 56.05)" class="st9 st10 st11">Hierarchical</text>
<text transform="matrix(1 0 0 1 24.59 81.14)" class="st9 st10 st11">k-means</text>
<text transform="matrix(1 0 0 1 27.49 106.22)" class="st9 st10 st11">Louvain</text>
<text transform="matrix(1 0 0 1 70.63 32.38)" class="st9 st12 st11">10x PBMCs (5k cells)</text>
<text transform="matrix(1 0 0 1 174.38 28.37)" class="st9 st12 st11">Simulated  (clean)</text>
<text transform="matrix(1 0 0 1 183.27 37.97)" class="st9 st12 st11">Bone Marrow</text>
<text transform="matrix(1 0 0 1 275.91 28.37)" class="st9 st12 st11">Simulated (noisy)</text>
<text transform="matrix(1 0 0 1 283.91 37.97)" class="st9 st12 st11">Bone Marrow</text>
<text transform="matrix(1 0 0 1 364.66 32.54)" class="st9 st12 st11">Buenrostro et al., 2018</text>
<text transform="matrix(1 0 0 1 469.19 32.43)" class="st9 st12 st11">sci</text>
<text transform="matrix(1 0 0 1 480.31 32.43)" class="st9 st12 st11">AT</text>
<text transform="matrix(1 0 0 1 489.79 32.43)" class="st9 st12 st11">AC-seq subset</text>
<text transform="matrix(6.123234e-17 -1 1 6.123234e-17 569.49 86.0303)" class="st9 st12 st11">ARI</text>
<text transform="matrix(6.123234e-17 -1 1 6.123234e-17 569.49 165.4805)" class="st9 st12 st11">AMI</text>
<text transform="matrix(6.123234e-17 -1 1 6.123234e-17 569.49 263.5)" class="st9 st12 st11">Homogeneity</text>
<text transform="matrix(1 0 0 1 13.29 135.07)" class="st9 st10 st11">Hierarchical</text>
<text transform="matrix(1 0 0 1 24.59 160.15)" class="st9 st10 st11">k-means</text>
<text transform="matrix(1 0 0 1 27.49 185.24)" class="st9 st10 st11">Louvain</text>
<text transform="matrix(1 0 0 1 13.29 214.08)" class="st9 st10 st11">Hierarchical</text>
<text transform="matrix(1 0 0 1 24.59 239.17)" class="st9 st10 st11">k-means</text>
<text transform="matrix(1 0 0 1 27.49 264.25)" class="st9 st10 st11">Louvain</text>
<g>
	<g>
		<path id="C36_0_1645cc31a0-4" class="st6" d="M247.9,306.5c1,0,2-0.4,2.7-1.1c0.7-0.7,1.1-1.7,1.1-2.7s-0.4-2-1.1-2.7
			c-0.7-0.7-1.7-1.1-2.7-1.1s-2,0.4-2.7,1.1c-0.7,0.7-1.1,1.7-1.1,2.7s0.4,2,1.1,2.7C245.9,306.1,246.9,306.5,247.9,306.5z"/>
		<path id="C37_0_8b06e40055-4" class="st7" d="M293.6,306.5c1,0,2-0.4,2.7-1.1c0.7-0.7,1.1-1.7,1.1-2.7s-0.4-2-1.1-2.7
			c-0.7-0.7-1.7-1.1-2.7-1.1s-2,0.4-2.7,1.1c-0.7,0.7-1.1,1.7-1.1,2.7s0.4,2,1.1,2.7C291.6,306.1,292.5,306.5,293.6,306.5z"/>
	</g>
	<text transform="matrix(1 0 0 1 254.49 305.73)" class="st9 st10 st11">Peaks</text>
	<text transform="matrix(1 0 0 1 300.1 305.73)" class="st9 st10 st11">Peaks &amp; Sequences</text>
</g>
</svg>
